<svg width="76" height="70" viewBox="0 0 76 70" fill="none" xmlns="http://www.w3.org/2000/svg">
<path d="M70.5518 30.7897C70.5518 30.594 70.5518 30.4134 70.5518 30.288V30.0571C70.5268 30.0571 70.5044 30.0772 70.4795 30.0872C70.4969 30.3381 70.5393 30.5639 70.5518 30.7897Z" fill="#835733"/>
<path d="M71.5485 31.3412C71.5485 31.2609 71.5435 31.1773 71.5335 31.0903C71.5158 31.1135 71.4938 31.1331 71.4688 31.148C71.4996 31.2105 71.5263 31.2751 71.5485 31.3412Z" fill="#835733"/>
<path d="M70.4771 30.075C70.2279 30.2004 69.9213 30.5768 69.692 30.2606C69.7394 29.8592 69.7992 29.0563 69.8391 28.6298C69.7568 28.256 69.6297 28.7076 69.51 28.7502C69.535 28.5395 69.5599 28.3287 69.5798 28.1732C69.5998 28.0176 69.6097 27.9047 69.5798 27.9223C69.52 27.8671 69.4851 27.8571 69.4677 27.8822C69.4502 27.9072 69.4677 27.9725 69.4128 28.0779C69.3055 28.3899 69.214 28.7073 69.1387 29.0287C69.2658 29.8065 69.3555 31.2291 69.5624 31.9291C69.6696 32.2728 69.7992 32.4309 69.9612 32.18C70.1232 31.9291 70.335 31.2993 70.4771 30.075Z" fill="#835733"/>
<path d="M71.1483 33.2956C71.1483 32.543 71.1483 31.7903 71.1159 31.0652C70.914 30.872 70.7396 30.6036 70.5576 30.862C70.6128 31.7015 70.8127 32.5251 71.1483 33.2956Z" fill="#835733"/>
<path d="M58.206 8.48049C58.206 8.46292 58.2708 8.45038 58.5798 8.68622C58.4595 8.60998 58.3347 8.54127 58.206 8.48049C58.1885 8.50307 58.1885 8.54823 58.0091 8.48049C59.4955 9.19403 60.8694 10.1239 62.0867 11.2403L62.6101 11.6167C61.1491 10.1208 59.4349 8.89911 57.548 8.00881C55.8414 7.19582 54.0232 6.64525 52.1543 6.37549L53.0092 6.5762L53.8018 6.7995C54.0511 6.87226 54.3153 6.92996 54.5495 7.01276L55.2748 7.26365C55.7733 7.40666 56.222 7.60989 56.708 7.80307L57.0769 7.9511C57.199 8.00379 57.3261 8.06902 57.4408 8.12673L58.206 8.48049Z" fill="#835733"/>
<path d="M62.9902 11.7093L63.2893 12.0305C63.0426 11.7219 63.0077 11.6993 62.9902 11.7093Z" fill="#835733"/>
<path d="M7.2832 35.7216C7.31017 37.9198 7.8272 40.0839 8.79612 42.0541C8.08915 40.0006 7.71139 37.847 7.67701 35.6739C7.66206 35.4105 7.67701 35.147 7.67701 34.8861L7.69446 34.1083C7.73185 33.5714 7.76674 33.0445 7.80413 32.5302C7.84151 32.0159 7.90881 31.5266 7.95866 31.0249C8.00851 30.5231 8.08827 30.0815 8.14061 29.6299C7.90632 30.6335 7.72188 31.6521 7.56984 32.6808L7.47014 33.4535C7.43774 33.7044 7.39287 33.9754 7.38041 34.2187L7.32059 34.9714L7.29068 35.3452L7.2832 35.7216Z" fill="#835733"/>
<path d="M14.708 50.1136C13.9054 48.9997 13.1527 48.0187 12.4822 47.0628L12.2155 46.7115L11.9663 46.3577C11.8068 46.1219 11.6323 45.8961 11.4678 45.6653C11.1687 45.1961 10.8347 44.747 10.5605 44.2778C11.5012 46.2594 12.7126 48.0987 14.1597 49.7423C14.3341 49.8728 14.526 49.9982 14.708 50.1136Z" fill="#835733"/>
<path d="M12.2993 48.0486C11.6089 46.9723 10.9783 45.9787 10.3801 45.0053L9.95641 44.2701L9.73956 43.9064C9.67227 43.7859 9.61245 43.6555 9.54515 43.54L9.15134 42.8049L8.79492 42.0522C9.55074 44.2678 10.7426 46.3073 12.2993 48.0486Z" fill="#835733"/>
<path d="M31.6435 1.50494C32.6853 1.20889 33.5378 1.05584 34.2132 0.912832C34.8887 0.769823 35.3996 0.727171 35.7685 0.68201C35.9255 0.619287 36.1125 0.546527 36.3293 0.471259L37.077 0.23291L36.7007 0.250473C34.4429 0.503236 32.2041 0.904691 29.9985 1.45225C29.5473 1.59526 29.1062 1.72573 28.6924 1.87877C28.2787 2.03182 27.8948 2.18988 27.5459 2.34042C28.2288 2.18235 28.9093 2.00673 29.5947 1.88128L30.6191 1.67806C30.9606 1.60781 31.3045 1.55763 31.6435 1.50494Z" fill="#835733"/>
<path d="M35.7656 0.677125C34.4172 1.21404 35.1375 1.13124 35.8304 0.953108C36.0024 0.907947 36.1769 0.860278 36.314 0.812608C36.4137 0.788202 36.5095 0.749325 36.5981 0.697197C36.6754 0.636982 36.4859 0.589312 35.7656 0.677125Z" fill="#835733"/>
<path d="M24.007 8.31006C23.9148 8.34769 23.8251 8.39285 23.7353 8.43801L22.9727 8.86453C23.3241 8.67636 23.6556 8.48819 24.007 8.31006Z" fill="#835733"/>
<path d="M5.27194 24.3366C5.93238 22.6035 6.71794 20.9214 7.62232 19.3037C5.78778 22.3797 4.53852 25.7728 3.93848 29.3094C4.05811 28.8603 4.25502 28.4287 4.38961 27.9846C4.44245 27.4185 4.52565 26.8557 4.63886 26.2986C4.71612 25.985 4.80585 25.6589 4.90555 25.3277C4.9554 25.1621 5.00774 24.9965 5.06257 24.8259C5.11741 24.6553 5.20215 24.4972 5.27194 24.3366Z" fill="#835733"/>
<path d="M37.0867 4.31537C32.3012 4.90497 27.7026 6.27987 23.7371 8.43756C19.5972 10.3669 15.9557 13.1443 13.2514 16.4812C10.6625 19.6584 8.86768 23.4137 8.01722 27.4327C7.62881 29.3446 7.34837 31.2771 7.17727 33.2209C7.15733 33.4893 7.12742 33.7603 7.11246 34.0287C7.09751 34.2972 7.09502 34.5556 7.08754 34.8216C7.05264 35.3534 7.08754 35.8904 7.1 36.4298C7.1 36.7007 7.13988 36.9692 7.15733 37.2402C7.17477 37.5111 7.19721 37.7821 7.23459 38.0531C7.27198 38.324 7.31435 38.59 7.35672 38.8609L7.41654 39.2624L7.50378 39.6638C7.91596 41.7427 8.68069 43.7346 9.76443 45.5523C10.6847 47.1195 11.8946 48.4949 13.3286 49.6042L13.057 49.2053L12.8077 48.8089C12.6432 48.558 12.4687 48.3071 12.3092 48.0562C12.6158 48.3824 12.9298 48.6859 13.2289 48.9745C13.528 49.263 13.8695 49.5089 14.1786 49.7497C15.8017 51.5882 17.653 53.2089 19.6869 54.5719C21.7387 55.9542 23.9353 57.1052 26.2371 58.0041C28.5758 58.9214 30.9961 59.612 33.4652 60.0665L33.9313 60.1593L34.4048 60.2321L35.347 60.3776C35.9776 60.4679 36.6156 60.5357 37.2512 60.6134C37.8868 60.6912 38.5423 60.7263 39.1878 60.764L40.1549 60.8041C40.4789 60.8217 40.803 60.8367 41.1245 60.8317C41.4882 60.8318 41.8518 60.8134 42.2137 60.7765C42.5601 60.7514 42.8916 60.6737 43.2231 60.6185C43.5546 60.5633 43.8836 60.5081 44.2201 60.4504C44.5712 60.384 44.9257 60.3371 45.2819 60.3099C46.758 60.1662 48.2227 59.9223 49.6661 59.5798C49.6661 59.5497 49.6437 59.5271 49.5988 59.507C50.3466 59.3489 51.042 59.1131 51.7573 58.9124L52.8016 58.5561C53.1531 58.4457 53.4821 58.2902 53.821 58.1622C55.143 57.6345 56.4159 56.9897 57.6245 56.2353C59.9724 54.7551 61.9614 52.9135 63.26 50.8336C64.5211 48.9394 65.4608 47.0426 65.7524 44.915C65.8621 44.1222 66.3356 44.1623 66.5002 43.5828C66.6148 43.3018 66.6821 43.0107 66.7693 42.7272C66.8167 42.5842 66.8615 42.4412 66.9089 42.2982C66.9563 42.1552 66.9712 42.0097 67.0111 41.8641C67.051 41.7186 67.0834 41.5731 67.1183 41.4276L67.1756 41.2043L67.1906 41.1491C67.1924 41.1215 67.1924 41.0939 67.1906 41.0663L67.208 40.8857C67.2304 40.6348 67.2479 40.409 67.2753 40.1706L67.36 39.4731C67.4822 38.5498 67.6267 37.6516 67.8012 36.7585C67.9757 35.8653 68.1626 34.952 68.3645 34.0187L68.6611 33.9886C68.6835 33.7026 68.7184 33.4391 68.7583 33.1857C68.7982 32.9323 68.8431 32.714 68.8929 32.5058C69.0901 33.0167 69.246 33.5428 69.359 34.0789C69.4288 34.3775 69.5061 34.671 69.5758 34.947C69.6456 35.223 69.7304 35.4638 69.8076 35.662C69.9696 36.0534 70.1391 36.2241 70.3261 35.9732C70.513 35.7223 70.7199 35.0373 70.9342 33.7678C70.9591 34.0438 70.9915 34.2897 71.0239 34.5205V34.6058H71.0364C71.1984 35.7825 71.4178 36.5151 71.8166 37.2226C71.7866 36.4323 71.7717 35.6495 71.7542 34.8768C71.9038 35.0097 72.0583 35.0925 72.2029 34.9997C72.2328 35.0649 72.2652 35.1251 72.2951 35.1979L72.3225 35.8352C72.3968 35.9274 72.4862 36.0063 72.5867 36.0685C72.8758 37.0721 73.1625 38.3842 73.469 39.3427C73.7756 40.3011 74.0448 40.9258 74.2666 40.5846C74.3231 40.4047 74.3401 40.2147 74.3165 40.0276C74.2884 39.7529 74.246 39.4799 74.1894 39.2097C74.0697 38.5799 73.8903 37.8022 73.7432 36.9516C73.7773 36.8381 73.804 36.7225 73.823 36.6054C73.9825 37.7068 74.1919 37.6868 74.3813 37.5613C74.5707 37.4359 74.7427 37.2 74.8798 37.8448C74.9321 38.2814 74.9994 38.7079 75.0692 39.1369C75.139 39.566 75.2287 39.9574 75.301 40.4491C75.3733 40.9409 75.458 41.395 75.4979 41.8717C75.5378 42.3484 75.5602 42.8301 75.5777 43.3118C75.5649 47.0557 74.6497 50.7406 72.9107 54.0501C72.0593 55.6496 71.0471 57.157 69.8899 58.5486C69.5908 58.8923 69.3042 59.2536 68.9901 59.5873L68.028 60.5909C67.694 60.9145 67.3476 61.2306 67.0036 61.5543L66.7544 61.8052L66.4827 62.0335L65.9344 62.4926C65.6851 62.7109 65.4159 62.9267 65.1418 63.1199C63.6955 64.22 62.1413 65.1683 60.5033 65.95C58.9007 66.7228 57.2323 67.3492 55.5184 67.8216C55.7103 67.6761 55.9122 67.5281 56.1191 67.375C53.3774 68.2005 50.5858 68.7324 47.7818 69.2442L46.4907 69.475L45.1897 69.6481L44.5366 69.7359L43.8811 69.7962L42.5676 69.9065C40.7984 70.0191 39.0242 70.03 37.2537 69.9392C35.4438 69.8543 33.6413 69.6515 31.8575 69.332C30.0191 68.9925 28.2048 68.5316 26.4265 67.9521C22.6584 66.6871 19.0718 64.9292 15.7588 62.7235C12.3377 60.466 9.31232 57.653 6.80589 54.3988C7.33928 55.0812 7.925 55.7135 8.49827 56.3558C9.07153 56.9981 9.68717 57.5952 10.3227 58.1672C10.9583 58.7393 11.5939 59.3113 12.2394 59.8758C12.885 60.4403 13.5654 60.9672 14.2633 61.469C15.4483 62.4305 16.6975 63.309 18.002 64.0984C16.7184 63.2328 15.4522 62.3973 14.2633 61.469C11.9628 59.5991 9.86648 57.488 8.00975 55.1716C7.77296 54.9006 7.55861 54.6121 7.34177 54.3311L6.69124 53.4956L6.07809 52.6551L5.76903 52.2436C5.67182 52.1031 5.57711 51.9626 5.47991 51.8246L4.90166 51.0067C4.70475 50.7408 4.53527 50.4623 4.34833 50.1988L3.80249 49.4261C3.63051 49.1752 3.45853 48.9042 3.28405 48.6533C3.16691 48.134 3.24667 48.1039 3.07967 47.6272C2.46445 45.988 1.98835 44.2993 1.65648 42.5792C1.57922 42.1577 1.47952 41.7462 1.40724 41.3247C1.33496 40.9032 1.27514 40.4993 1.20286 40.0953C1.13058 39.6914 1.09568 39.29 1.03088 38.8961C1.00097 38.6979 0.971058 38.5022 0.938656 38.309C0.906254 38.1158 0.8913 37.9201 0.866375 37.7294C0.764185 37.7294 0.771662 36.1864 0.572266 36.7007C0.572266 36.3119 0.589713 35.918 0.602175 35.514C0.602175 35.3133 0.619622 35.1126 0.629592 34.9069C0.639562 34.7011 0.666979 34.5004 0.686918 34.2947C0.72929 33.8882 0.769169 33.4692 0.819018 33.0603C0.868868 32.6513 0.941149 32.275 1.00097 31.8786C1.10814 31.0883 1.29009 30.3055 1.42967 29.5327C1.50195 29.1463 1.60165 28.78 1.67891 28.3911C1.75618 28.0023 1.83594 27.6385 1.92816 27.2822C2.10263 26.6625 2.22725 26.0277 2.37929 25.393C2.45656 25.0768 2.53133 24.7582 2.60112 24.4371C2.67091 24.1159 2.73821 23.7948 2.82544 23.4736C4.73001 18.2928 7.83118 13.642 11.873 9.90529C13.9312 8.00452 16.2012 6.35014 18.6376 4.97522C21.1198 3.587 23.7374 2.45957 26.4489 1.61074C29.3057 0.761668 32.2443 0.221702 35.2149 0C30.9442 0.562048 26.7709 1.7136 22.8124 3.42219C20.8386 4.14298 18.9381 5.05288 17.1371 6.13937C15.5182 7.12389 14.0278 8.30807 12.7005 9.66443L11.8581 10.5375C11.5764 10.8211 11.3197 11.1347 11.048 11.4307C14.4243 8.02997 18.4181 5.31375 22.8124 3.42972C25.1978 2.56184 27.6493 1.89057 30.1427 1.42257L29.9982 1.46773C29.5246 1.59318 29.0461 1.70106 28.575 1.84407L27.1543 2.25804C26.2146 2.57668 25.27 2.89281 24.3403 3.26162C20.7586 4.45337 17.4262 6.19457 15.011 8.2795L14.5624 8.66336C14.4178 8.79634 14.2808 8.93182 14.1462 9.06479L13.2788 9.87769L12.4463 10.7282C14.5846 8.71981 16.9603 6.98396 19.5199 5.55981C21.0729 4.68428 22.6834 3.91643 24.3403 3.26162C25.3896 2.90284 26.4689 2.60428 27.5456 2.3308C27.4384 2.37847 27.3213 2.42614 27.2241 2.4713C26.5856 2.74701 25.9903 3.11465 25.4569 3.56269C24.9584 4.00928 24.774 4.37559 25.4818 4.24763C27.3074 3.62892 29.1664 3.11543 31.05 2.70965C32.8812 2.33335 34.7306 2.05281 36.5907 1.86916C38.2906 1.71862 39.7711 1.65088 40.8279 1.64586H42.0616C42.2062 1.64586 42.3109 1.64586 42.3906 1.64586C42.4278 1.64044 42.4656 1.64044 42.5028 1.64586C42.7346 1.78135 39.791 1.81145 36.8724 2.14765C36.1396 2.22041 35.4143 2.34586 34.7363 2.43618C34.0584 2.5265 33.4328 2.67202 32.9044 2.76736C31.8526 2.99818 31.1945 3.15875 31.3117 3.15624L32.3311 3.01825L32.8296 2.948L33.3281 2.89531L32.8595 3.00571L32.4009 3.13366L31.526 3.38456L29.3402 3.90391C28.7216 4.0549 28.1157 4.25455 27.5281 4.50104C26.0476 5.17092 24.4599 5.83579 22.8523 6.60854C21.2037 7.39509 19.6436 8.35733 18.1989 9.47877C16.1843 11.1069 14.3984 13.0025 12.89 15.1138C13.0146 15.2293 12.045 16.1601 12.4762 15.9443C12.2693 16.1801 12.0724 16.431 11.8656 16.6794C11.6587 16.9278 11.4518 17.1812 11.2699 17.4321C10.8969 17.9264 10.5508 18.4407 10.233 18.9726C10.0835 19.2235 9.94389 19.4744 9.81678 19.7052C9.70281 19.9288 9.60048 20.1583 9.5102 20.3927C9.35477 20.7438 9.25874 21.1186 9.22606 21.5016L9.15378 21.6672C9.05564 21.8742 8.97235 22.088 8.90454 22.307C8.03627 23.9166 7.40569 25.645 7.0327 27.4377C6.70263 29.1293 6.50099 30.8437 6.42953 32.566C6.36971 33.1882 6.275 33.8205 6.25007 34.4427C6.23263 34.7538 6.19773 35.0649 6.18776 35.3785L6.16533 36.3294C6.16533 35.4889 6.35974 34.2746 6.38965 33.4115C6.40211 33.1255 6.41458 32.8445 6.42953 32.566C6.60683 30.9795 6.87479 29.4047 7.2321 27.8492C7.57251 26.3099 8.03254 24.7999 8.60794 23.3331L8.72757 22.864C8.77493 22.6833 8.83973 22.4926 8.90205 22.307L9.22606 21.7098C9.22095 21.6405 9.22095 21.5709 9.22606 21.5016C9.87804 20.0742 10.6537 18.7074 11.544 17.417C12.3923 16.2186 13.2999 15.0639 14.2633 13.9572C16.0051 12.1037 18.0121 10.5224 20.2178 9.26551C22.4373 7.98859 24.7904 6.96288 27.234 6.20711C24.9349 7.0795 22.7402 8.2089 20.6913 9.57411C21.9288 8.78046 23.216 8.06811 24.5447 7.44151C25.1877 7.11535 25.8507 6.85693 26.4988 6.57091C26.8228 6.43543 27.1543 6.32002 27.4808 6.19206C27.8073 6.0641 28.1338 5.94117 28.4778 5.83077L29.709 5.49207C30.5739 5.28382 31.4363 5.06555 32.3137 4.90999C31.4887 5.02289 30.6836 5.20354 29.8785 5.36662C31.4712 4.8849 33.0739 4.48849 34.6715 4.17487C36.9035 3.79527 39.1604 3.5831 41.4236 3.54011C43.7134 3.47536 46.0047 3.58607 48.2778 3.87129C50.5741 4.15045 52.8316 4.68995 55.0074 5.47952C57.1894 6.28076 59.2218 7.44615 61.0192 8.9268C60.8498 8.85153 60.6578 8.76121 60.446 8.66086C60.2287 8.48895 60.0024 8.32899 59.768 8.18165L59.0751 7.72251C58.6041 7.43649 58.118 7.18058 57.642 6.90962C57.1435 6.6813 56.645 6.44295 56.1664 6.22969C55.6879 6.01643 55.1695 5.83579 54.671 5.67271C52.8098 5.04755 50.8763 4.6664 48.9184 4.53867C49.539 4.64655 50.1123 4.73186 50.6631 4.83472L51.4657 4.99279C51.7274 5.04297 51.9866 5.09314 52.2408 5.16089C52.7393 5.29135 53.2677 5.39171 53.7861 5.56483C54.3383 5.72133 54.8823 5.90555 55.4162 6.11679C55.4162 6.14439 55.4162 6.19457 55.2143 6.13937C55.5782 6.27235 55.9621 6.39027 56.3509 6.55084L57.5298 7.05263C57.9161 7.24832 58.3075 7.46158 58.6988 7.66982C58.8958 7.77586 59.0872 7.89227 59.272 8.01857L59.8229 8.3924L58.9854 8.04867C58.8401 7.98665 58.6911 7.93386 58.5393 7.89061L58.0781 7.7476C57.8738 7.6623 57.647 7.56194 57.4052 7.44653L56.6076 7.12288C56.0568 6.87198 55.4287 6.67127 54.8056 6.46303C52.1478 5.61055 49.3997 5.07582 46.6179 4.86985C45.247 4.75444 43.8762 4.69673 42.4854 4.70426C41.795 4.70426 41.1021 4.73437 40.4091 4.75193C39.7162 4.76949 39.0209 4.83974 38.323 4.90247C33.3555 5.21107 28.4304 6.29994 23.9988 8.3096C28.3332 6.13435 32.7349 4.95264 37.0867 4.31537ZM70.6675 43.0484C70.6825 43.1437 70.6974 43.2416 70.7124 43.3419L70.7398 43.638C70.7622 43.8387 70.7822 44.0394 70.8046 44.2401C70.837 44.1799 70.8669 44.1222 70.9018 44.0645C70.9204 43.7103 70.8392 43.3581 70.6675 43.0484ZM68.4567 51.3805C69.2395 50.1663 69.778 48.8092 70.0419 47.3863C70.3371 45.8055 70.415 44.1914 70.2737 42.5892C70.2442 42.5721 70.2106 42.5634 70.1765 42.5641C70.1701 44.0215 70.0577 45.4764 69.84 46.9171C69.5877 48.4625 69.1221 49.9649 68.4567 51.3805ZM59.8553 56.6694H59.9251C59.9121 56.6554 59.9004 56.6403 59.8902 56.6242L59.8553 56.6694ZM14.211 54.9633C15.6117 55.9393 17.1396 57.0332 18.827 58.0669C20.5616 59.1479 22.3883 60.0714 24.2855 60.8267C24.5728 60.9539 24.8684 61.0612 25.1703 61.1478C25.4794 61.2281 25.8034 61.2909 26.1374 61.3611C26.8672 61.4969 27.5881 61.6779 28.2958 61.903C29.1424 62.1261 30.0024 62.2937 30.8705 62.4048C31.6332 62.5252 32.366 62.5779 33.1636 62.6934L32.0245 62.1916C33.2067 62.5032 34.424 62.6592 35.6461 62.6557C36.8622 62.6458 38.0775 62.7238 39.2826 62.889C39.2826 62.7661 39.7088 62.5378 40.1076 62.5579C40.606 62.5579 41.1045 62.5579 41.603 62.5579L42.3358 62.5729C42.5851 62.5729 42.8169 62.5729 43.0511 62.5729C43.5247 62.5579 43.9858 62.5729 44.422 62.5177C44.8411 62.4777 45.2573 62.4115 45.6682 62.3195C47.6198 62.021 49.5415 61.6747 50.9821 61.065C51.2479 60.9651 51.4993 60.8301 51.7299 60.6636C52.029 60.4805 52.3555 60.2471 52.6944 60.0765C53.1256 59.921 53.5593 59.7729 53.9756 59.5923C54.3918 59.4117 54.823 59.2661 55.2218 59.0679C55.1719 59.0529 55.1246 59.0353 55.0822 59.0178C54.7507 59.1633 54.3968 59.2687 54.0528 59.4142L53.016 59.8457L52.2209 60.1869C51.9542 60.3048 51.6676 60.3952 51.3834 60.503C51.0993 60.6109 50.8126 60.7188 50.5185 60.8167L49.6038 61.0876C49.0106 61.2858 48.3925 61.4113 47.7943 61.5618C47.4952 61.6421 47.1911 61.6898 46.8945 61.745L46.0147 61.903C43.1432 62.3044 40.2439 62.4672 37.3459 62.3898C34.5095 62.3225 31.6863 61.9771 28.9164 61.3586C28.3207 61.2357 27.7251 61.1077 27.1169 60.9898C26.5087 60.8719 25.9155 60.7138 25.3323 60.5306C23.5452 60.0289 21.6858 59.1507 20.0209 58.2375C18.3559 57.3242 16.8804 56.3784 15.674 55.859C15.4273 55.7158 15.1885 55.5592 14.9587 55.3898C14.7274 55.218 14.4763 55.0748 14.211 54.9633ZM7.31684 54.2407C9.02679 56.2478 10.9175 58.0913 12.9647 59.7479C14.9212 61.3333 16.9822 62.7835 19.1336 64.0883L19.809 64.4797L20.6365 64.8912C20.9331 65.0342 21.2422 65.1897 21.5712 65.3327L22.5956 65.7568L23.129 65.97L23.6798 66.1607L24.7964 66.532C25.1703 66.6474 25.5442 66.7428 25.9205 66.8406C26.2969 66.9385 26.6533 67.0363 27.0147 67.0915C27.3761 67.1467 27.7251 67.2245 28.059 67.2797L28.5575 67.3575L29.0261 67.4026C29.5396 67.454 30.056 67.4674 30.5714 67.4428C31.4014 67.3575 31.7678 67.1141 31.4139 66.66C30.1876 67.0489 27.7001 66.7754 24.8338 65.7844C24.121 65.5335 23.3757 65.2625 22.633 64.9238C21.8902 64.5851 21.1375 64.2288 20.3898 63.845C18.8873 63.0392 17.4401 62.1332 16.0579 61.1328C13.7546 59.4197 11.6023 57.51 9.62486 55.425C9.26594 55.0411 8.93943 54.7124 8.6528 54.4515C8.43127 54.235 8.19197 54.0378 7.93747 53.8619C7.54615 53.621 7.31684 53.7063 7.31186 54.2407H7.31684ZM7.73059 15.3597C6.51946 17.1664 5.41747 19.0448 4.43058 20.9848C5.35055 19.0085 6.45555 17.1249 7.73059 15.3597ZM4.01684 35.361C3.95903 33.8516 4.03745 32.34 4.25113 30.8449C4.45582 29.3102 4.77747 27.7937 5.21321 26.3087L5.55717 25.1923C5.67182 24.8184 5.82137 24.4571 5.95098 24.0908C6.20023 23.3507 6.53172 22.6432 6.83082 21.9281C6.99532 21.5744 7.16979 21.2281 7.32931 20.8794L7.57855 20.3575L7.85521 19.8557C8.04215 19.5195 8.21911 19.1783 8.41103 18.8522L9.00174 17.8737C10.302 15.8427 11.8812 14.0072 13.6925 12.4218C15.4572 10.8185 17.334 9.43863 19.0015 8.13398L18.8793 7.92825L18.5154 8.23183L17.4885 8.82394L16.9901 9.09992L16.5339 9.38343L15.6317 9.94041C15.3376 10.1286 15.0559 10.3318 14.7668 10.5325L14.9462 10.3644L14.6222 10.6354C14.2281 10.9153 13.8503 11.2177 13.4907 11.5411C13.3012 11.7067 13.1093 11.8748 12.9174 12.0554C12.7255 12.2361 12.5435 12.4393 12.3516 12.645L11.8332 13.2221L11.3347 13.8318C10.3304 14.942 9.40667 16.1234 8.57055 17.3669C8.16179 17.9966 7.74804 18.6213 7.39162 19.2762C7.21216 19.6023 7.01526 19.916 6.85574 20.2521L6.35725 21.2557C5.13928 23.801 4.32196 26.5214 3.93459 29.3195L3.83738 29.9166C3.81495 30.1173 3.79501 30.3155 3.77258 30.5112C3.73519 30.9026 3.6978 31.289 3.66042 31.6728C3.62303 32.0567 3.63051 32.4381 3.61555 32.8169C3.6006 33.1958 3.58813 33.5696 3.61555 33.951C3.64297 34.3323 3.633 34.7036 3.64048 35.0925C3.64795 35.4814 3.70029 35.8452 3.7302 36.2366C3.76011 36.628 3.80996 37.0018 3.85732 37.3882C3.90468 37.7746 3.94456 38.1685 4.01933 38.5624C3.97197 38.1108 4.01933 37.5387 4.01933 36.9692C4.01933 36.6857 4.03179 36.3997 4.03927 36.1312C4.04675 35.8628 4.0293 35.5918 4.01434 35.361H4.01684Z" fill="#835733"/>
<path d="M28.9898 5.58253C30.8393 4.97544 32.7302 4.50502 34.6477 4.17501C35.0216 4.09724 35.3954 4.04204 35.7693 3.97681C36.1432 3.91158 36.517 3.83882 36.8909 3.79366C37.6386 3.69581 38.3864 3.57789 39.1341 3.51516C40.9996 3.35036 42.8739 3.31097 44.7446 3.39724C46.7188 3.47697 48.6837 3.71101 50.6218 4.09724C52.6107 4.48947 54.5518 5.09594 56.4118 5.90618C58.2644 6.71053 59.9854 7.79242 61.5163 9.11511C61.7656 9.17282 61.8703 9.11511 61.7307 8.81404C60.118 7.29636 58.2593 6.06765 56.2348 5.1811C54.2383 4.30439 52.1472 3.66449 50.0037 3.27431C47.8952 2.88881 45.7621 2.65572 43.6205 2.57682C41.4836 2.48153 39.3432 2.49409 37.2074 2.61446L37.008 2.64958C35.196 2.98829 32.8182 3.34957 30.3706 3.96426C27.9231 4.57895 25.4131 5.44454 23.3918 6.53342C21.381 7.62987 19.4643 8.89288 17.6616 10.3094C15.8831 11.7087 14.2818 13.3222 12.8936 15.114C17.2298 10.436 22.8212 7.12503 28.9898 5.58253Z" fill="#835733"/>
<path d="M10.5717 44.278C9.95305 42.9693 9.46786 41.6008 9.12362 40.1935C8.64713 38.2818 8.42007 36.3158 8.44817 34.3451C8.50045 32.3104 8.72728 30.284 9.12612 28.2886L8.84447 29.3724L8.61018 30.4688C8.57279 30.652 8.52793 30.8351 8.49802 31.0183L8.4058 31.5753C8.34847 31.9491 8.2737 32.328 8.22883 32.6892C8.0143 34.128 7.92423 35.5828 7.95965 37.0372C7.99454 37.3935 8.01199 37.7448 8.07181 38.0835C8.13163 38.4222 8.19643 38.7584 8.26373 39.087C8.4177 39.7203 8.61422 40.3423 8.85195 40.9487C9.08132 41.5348 9.34089 42.1084 9.62959 42.6673C9.93866 43.2117 10.2228 43.7537 10.5717 44.278Z" fill="#835733"/>
<path d="M9.94786 25.0738C9.79582 25.6182 9.62882 26.1451 9.49174 26.682C9.42943 26.9504 9.36462 27.2189 9.29982 27.4848C9.23502 27.7508 9.17021 28.0167 9.12535 28.2877C10.2542 24.0206 12.334 20.0686 15.2069 16.7315C17.5901 13.9076 20.477 11.5573 23.7187 9.80185C27.0574 7.99229 30.6439 6.69026 34.3614 5.93809L34.9995 5.80511C35.2139 5.76497 35.4282 5.73235 35.6426 5.69723C36.0688 5.62949 36.495 5.55422 36.9237 5.49902C35.1484 5.67602 33.3844 5.95243 31.6397 6.32697C29.9152 6.71501 28.2183 7.21791 26.5601 7.83234C26.1513 7.99291 25.7376 8.13592 25.3363 8.31154L24.1349 8.8334L22.9635 9.40795C22.5721 9.59612 22.2033 9.82192 21.8219 10.0251C20.3332 10.8662 18.916 11.8296 17.5847 12.9054C16.2939 13.964 15.1025 15.1398 14.0255 16.4179C12.9774 17.6413 12.0492 18.9638 11.2539 20.367C10.4864 21.7239 9.84074 23.1471 9.32475 24.6196C8.83819 26.0353 8.47132 27.4898 8.22806 28.9676C8.19068 29.1759 8.15578 29.4142 8.13086 29.64C8.19566 29.3013 8.29038 28.9701 8.3801 28.6364C8.46983 28.3028 8.54959 27.9691 8.65178 27.6329C8.86364 26.9806 9.05058 26.3157 9.30231 25.6809C9.77227 24.3986 10.3294 23.1504 10.9698 21.9451L11.4683 21.0469C11.6352 20.7509 11.8222 20.4648 11.9967 20.1738L12.2633 19.7347L12.5425 19.3183L13.1232 18.4753C13.9319 17.3696 14.8129 16.3193 15.7603 15.3316C13.159 18.1278 11.1778 21.4485 9.94786 25.0738Z" fill="#835733"/>
<path d="M27.2334 6.20719C27.6447 6.08175 28.0459 5.93623 28.4597 5.83085L29.8604 5.3667C29.5688 5.43193 29.2797 5.51222 28.9906 5.58247C28.7015 5.65272 28.3974 5.77566 28.1033 5.87852L27.2334 6.20719Z" fill="#835733"/>
<path d="M14.7645 10.5381L14.6199 10.641L14.1862 11.0047L13.7675 11.3911C13.4908 11.642 13.2067 11.8929 12.93 12.1689C12.3941 12.7184 11.8383 13.2477 11.3324 13.8373C9.93588 15.5456 8.69385 17.376 7.62109 19.3068C8.63776 17.5774 9.79754 15.9375 11.0881 14.4044C12.2381 13.0449 13.4656 11.754 14.7645 10.5381Z" fill="#835733"/>
<path d="M4.34697 19.5698C4.22235 19.7956 4.02794 20.1243 3.84848 20.463L3.38987 21.3763C3.30513 21.6798 3.20294 21.9734 3.14062 22.2795C3.33753 21.8479 3.57182 21.4239 3.78866 20.9974C3.87839 20.7465 3.95566 20.5157 4.05536 20.2799L4.34697 19.5698Z" fill="#835733"/>
<path d="M3.28256 48.648C1.35803 44.6251 0.389532 40.2067 0.453627 35.7421L0.468581 34.9191C0.468581 34.6456 0.505968 34.3747 0.525908 34.1012L0.590712 33.2858C0.610651 33.0098 0.653023 32.769 0.682932 32.508C0.752721 32.0062 0.807555 31.4844 0.889806 30.9751C0.972057 30.4658 1.07176 29.9715 1.16148 29.4521C1.56606 27.4193 2.12688 25.4212 2.83891 23.4759C2.93611 23.0794 3.03581 22.683 3.13551 22.2866C1.94969 24.7916 1.08133 27.4367 0.550832 30.1597C0.488521 30.4934 0.421225 30.8245 0.366391 31.1632L0.231798 32.1668C0.189426 32.5005 0.14207 32.8191 0.109668 33.1704C0.0772661 33.5216 0.0623113 33.8704 0.0373868 34.2166C-0.0199396 34.874 0.00249245 35.574 0.0149547 36.2564C0.0149547 36.5976 0.054834 36.9363 0.0797585 37.2725C0.104683 37.6087 0.144562 37.9424 0.174472 38.2761C0.251738 38.7979 0.383838 39.4453 0.520923 40.085C0.658008 40.7248 0.82251 41.3571 0.907253 41.8689C1.32995 44.2238 2.07655 46.508 3.12554 48.6556C4.13162 50.7048 5.36583 52.6324 6.8044 54.401C5.47307 52.6609 4.31986 50.7897 3.36232 48.8161L3.28256 48.648Z" fill="#835733"/>
<path d="M17.6748 20.651L17.8069 20.493L17.9913 20.4654L18.4898 20.5708L18.8064 20.6234L19.0706 20.5984L19.3597 20.4378L19.8333 20.3048L20.4414 20.1467L20.7829 19.8808L21.1518 19.67L21.3113 19.6149L21.6802 19.364L22.1861 19.0679L22.6622 18.5109L22.9787 18.4306L23.5321 18.5636L24.2973 18.5912L25.0874 18.5636L25.693 18.3779L26.1167 18.6966L26.2987 19.0679L26.1915 19.3865L26.0619 19.4919L25.9024 20.0514L25.5061 20.4227L25.2967 20.7941V20.9521L25.0325 21.484L24.7683 21.6446L24.5839 21.75L24.3197 22.2267L24.2399 22.3069L24.4269 22.7586L24.7683 23.0094L25.3217 23.3808L25.9248 23.7847L26.2663 24.1811L26.5579 24.432L26.847 24.7507L27.0041 25.2524L27.0589 25.7818L26.847 26.1531V26.4718L26.5828 26.685L26.2663 26.7101L25.9497 26.4994L25.4513 26.3915L25.3466 26.1406L25.03 25.9023L24.5016 25.7166L24.1801 25.4306L24.1552 25.1797L23.9707 24.8886L23.7589 24.4897L23.6268 24.3041C23.5728 24.2501 23.5105 24.2052 23.4423 24.1711C23.3828 24.1408 23.3211 24.1148 23.2579 24.0933C23.1964 24.06 23.1299 24.0371 23.061 24.0256C22.9993 24.0179 22.9404 23.9955 22.889 23.9603L22.8367 24.0381L22.4404 24.8084L22.1513 25.1546L21.8871 25.6564L21.5182 26.0277L20.8053 26.8757L20.2769 26.9033L19.9878 27.2496L18.8014 27.6209L18.4849 27.646L18.3004 27.2746L18.4849 27.1417L18.5098 26.6399L18.759 26.4542L18.8911 26.3212L19.1404 25.8445L19.4943 25.5911L19.7834 25.4582L20.2819 24.6628L20.6259 24.4119L20.9399 24.0231L21.2041 23.4661L21.5979 23.0145L21.73 22.7636L21.9793 22.2618L22.0042 21.9181L22.3207 21.7575L22.6099 21.3335L22.8591 20.9095L22.6099 20.8819L22.4528 20.9622L22.2036 21.0424L21.9668 21.1478L21.7026 21.4388L21.3337 21.6521L21.1219 21.8378L20.5935 22.0887L20.0676 22.0109H19.1703L18.6419 21.6647L18.3926 21.5066L18.1808 21.213L17.9166 21.1328L17.6997 20.8894L17.6748 20.651ZM19.0182 15.5002L19.0731 15.2368L19.4444 15.2092L19.9679 15.3045L20.3118 15.1464L20.733 15.3045H21.6877L22.1363 15.5554L23.0062 15.8063L23.3501 15.8841L23.6392 16.4436C23.7489 16.6287 23.8415 16.8235 23.9159 17.0256C23.9425 17.1239 23.9378 17.228 23.9025 17.3235C23.8671 17.4189 23.803 17.5007 23.719 17.5575L23.2704 17.6905L22.9015 17.7708L22.4528 17.6629L21.7674 17.7181C21.534 17.6946 21.3064 17.631 21.0945 17.5299C20.8844 17.443 20.6924 17.317 20.5287 17.1586L20.2794 16.707L19.8059 16.4962L19.7784 16.1249L19.4096 15.859L19.1204 15.6733L19.0182 15.5002ZM26.4831 28.5617L27.6421 28.4037L28.2229 28.0047L28.4347 27.8442L28.5917 27.7915L28.9357 27.3675L29.4143 27.0965L29.6635 26.9384L29.98 26.8306L30.3763 26.9911L30.7976 26.9108L31.2213 27.1617L31.5902 27.2144L32.0388 27.7162L32.3279 27.9044L32.6445 28.4865L32.6196 29.071L32.4875 29.47L32.2756 29.7359L31.7223 30.9302L31.5104 31.8334V32.3904L32.1186 32.7868L32.4875 33.266L32.4326 33.7427L32.303 34.0362L32.2058 34.3724L31.6251 34.6384L31.3359 34.7989L30.5708 34.8767L29.823 34.9294L29.0578 35.0097L28.7139 34.8767L27.687 35.1427H26.7897L26.2364 35.381L25.7603 35.3283L25.4438 35.514L25.1547 35.9656L24.9951 36.1513L24.6013 36.3369L24.2848 36.3896L24.0729 36.1789L23.704 35.9656L23.3601 35.4086L23.3875 35.1703L23.1756 34.7187L22.9912 33.966L22.9488 33.3689L22.8442 32.6162L22.58 31.6879L22.4753 30.9176L22.1313 30.7846L22.0516 30.3857L21.8148 30.0144L21.7874 29.4047L21.9992 29.1112L22.3158 29.0309L22.7918 28.9531L23.1333 29.1112L23.7389 29.3244L24.1352 29.3495L24.5315 29.3771L25.0575 29.0309L25.8052 28.9004L26.4383 28.5542L26.4831 28.5617ZM27.0888 33.2334L27.6172 33.2083L28.0384 32.8896L28.4871 32.9423L28.8834 32.6764L29.1999 32.1997L29.3046 31.8284L29.5165 31.5624L29.5414 30.7922L29.7532 30.1549L30.0698 29.6782L29.9377 29.3044L29.6211 29.2793L29.332 29.5452L28.7762 29.7961L28.5269 29.904L28.0285 29.9818L27.6596 30.2327C27.55 30.4319 27.4076 30.6109 27.2383 30.7621C27.0744 30.9156 26.8747 31.0252 26.6576 31.0807L26.4084 31.0556L26.0121 30.895H25.6158L25.1945 30.8148L24.9054 30.7621L24.6562 30.8148L24.868 31.161L24.8954 31.6628L25.1048 31.9287L25.1571 32.1947L24.9478 32.8043L25.1571 33.0954L25.212 33.281L25.5534 33.5746L25.8027 33.5997L26.199 33.5746L26.5679 33.4667L27.0888 33.2334ZM30.3863 25.8019L30.1869 25.6689C30.1097 25.6162 30.0349 25.561 29.9626 25.5083C29.8903 25.4557 29.833 25.3729 29.7782 25.3101C29.7536 25.2842 29.7359 25.2524 29.7268 25.2178C29.7176 25.1831 29.7173 25.1467 29.7258 25.1119C29.7258 24.9865 29.7258 24.8184 29.7408 24.6101C29.7396 24.4359 29.7798 24.2639 29.8579 24.1084C29.8754 24.0356 29.8878 23.9704 29.8978 23.9076C29.9031 23.8417 29.9031 23.7754 29.8978 23.7094C29.903 23.6426 29.903 23.5755 29.8978 23.5087C29.8931 23.452 29.8931 23.3949 29.8978 23.3381L29.6486 22.8062L29.6236 22.1163C29.6167 22.0558 29.599 21.9972 29.5713 21.9431C29.5358 21.8627 29.509 21.7785 29.4915 21.6923C29.4591 21.5961 29.4324 21.4981 29.4118 21.3987C29.3924 21.3162 29.3924 21.2303 29.4118 21.1478C29.4128 21.1031 29.4178 21.0586 29.4267 21.0148C29.4304 20.9622 29.4304 20.9094 29.4267 20.8568C29.4435 20.8042 29.4568 20.7506 29.4666 20.6962C29.4785 20.6313 29.5004 20.5687 29.5314 20.5105C29.5305 20.4701 29.5263 20.4299 29.5189 20.3901C29.5143 20.3509 29.5143 20.3114 29.5189 20.2722C29.5012 20.2251 29.4878 20.1763 29.4791 20.1267C29.465 20.0878 29.465 20.0451 29.4791 20.0062H29.5314C29.5286 19.9846 29.5286 19.9627 29.5314 19.941C29.5429 19.9093 29.5562 19.8783 29.5713 19.8482C29.5893 19.7565 29.5985 19.6632 29.5987 19.5697C29.5977 19.4655 29.58 19.3621 29.5464 19.2636C29.5157 19.2194 29.4929 19.1702 29.4791 19.1181C29.4697 19.0774 29.475 19.0347 29.494 18.9977C29.4892 18.9442 29.4892 18.8905 29.494 18.8371C29.5026 18.7756 29.5067 18.7135 29.5065 18.6514C29.4717 18.5628 29.4539 18.4683 29.4541 18.3729C29.4538 18.2711 29.463 18.1695 29.4816 18.0693C29.4816 17.979 29.4666 17.7984 29.4417 17.5249C29.4168 17.2514 29.4018 17.0432 29.4018 16.9002C29.3769 16.8764 29.3503 16.8546 29.322 16.8349C29.2853 16.8062 29.2504 16.7752 29.2174 16.7421L29.0977 16.6869C29.0779 16.681 29.0595 16.671 29.0436 16.6576C29.0278 16.6442 29.0148 16.6277 29.0055 16.6091L29.0155 16.0572L28.831 15.7385L28.5394 15.4876L28.168 15.2368C28.105 15.1433 28.0767 15.0305 28.0883 14.9181C28.0903 14.8703 28.102 14.8235 28.1226 14.7803C28.1431 14.7372 28.1722 14.6987 28.2079 14.6672C28.3321 14.5709 28.4849 14.5196 28.6416 14.5217C28.8081 14.52 28.9746 14.5283 29.1401 14.5468C29.2822 14.5644 29.4043 14.5844 29.5115 14.602C29.6003 14.6342 29.6937 14.652 29.7881 14.6547C29.8768 14.6507 29.9629 14.623 30.0374 14.5744C30.283 14.5016 30.5455 14.5113 30.7851 14.602L31.2612 14.8127L31.6575 15.2092C31.7408 15.3281 31.8488 15.4274 31.974 15.5002L31.9989 15.9267L32.131 16.3507L32.0787 16.8274L32.2108 17.7582L32.1834 18.26L32.0513 18.7618V19.7428L32.475 19.6098C32.6359 19.504 32.8023 19.4068 32.9735 19.3188C33.095 19.2307 33.2273 19.159 33.3673 19.1055C33.468 19.0627 33.5749 19.0364 33.6838 19.0278C33.8819 18.9926 34.0654 18.9002 34.2122 18.7618L34.5562 18.8396L34.9251 18.7618H35.5582L35.8074 18.5762H36.5551L36.8717 18.7091L37.6369 19.0278L37.8213 19.665L37.9011 20.1417L37.7166 20.5733L37.2181 21.0525L36.6125 21.2381H36.2934L35.9495 21.5041L35.0547 21.3435H34.7631L34.3942 21.3962L33.2601 21.1854L32.4426 21.0751L31.9939 21.05L31.9067 21.7123L31.9865 22.1915L31.8818 23.1198L31.9067 23.7295L31.8544 24.9514L31.3808 25.8797L31.0368 26.0929L30.3863 25.8019Z" fill="#835733"/>
<path d="M36.4564 25.2451L36.728 25.1197L37.8247 25.2702L38.5949 24.9691L39.2903 24.4949L40.0879 24.2942L40.858 24.1186L41.4313 23.8426L42.351 23.4939L43.2957 23.0824L44.5643 22.8315L45.3868 22.6057C45.4286 22.6831 45.4942 22.7447 45.5738 22.7813C45.6418 22.8124 45.7042 22.8548 45.7582 22.9068C45.7898 22.9275 45.8164 22.9553 45.8358 22.9879C45.8552 23.0205 45.867 23.0571 45.8704 23.095C45.8711 23.2057 45.8409 23.3143 45.7831 23.4086L45.4117 24.1337L44.7139 24.6605L43.9661 25.1347L43.2682 25.3103L42.4731 25.762L43.8415 26.2136C43.9272 26.2986 44.0189 26.3774 44.1157 26.4494C44.2211 26.5294 44.3203 26.6175 44.4123 26.7128C44.497 26.7981 44.5843 26.8935 44.674 27.0014C44.7634 27.1065 44.8427 27.2199 44.9108 27.3401V28.3161C44.9145 28.4685 44.8802 28.6194 44.8111 28.7551C44.7409 28.8841 44.6574 29.0052 44.5618 29.1164C44.4561 29.2229 44.3446 29.3234 44.2278 29.4175C44.1032 29.5178 43.9786 29.6182 43.8664 29.7185L42.9966 30.2203L41.9747 30.6719L41.2543 30.8476C41.1284 30.8819 40.9984 30.8988 40.868 30.8977C40.7231 30.8979 40.5783 30.8896 40.4343 30.8727C40.2799 30.8723 40.1257 30.8597 39.9732 30.835C39.8162 30.8099 39.6691 30.7798 39.537 30.7472L38.717 30.1952C38.6755 30.1868 38.6377 30.1657 38.6086 30.1346C38.5796 30.1036 38.5609 30.0643 38.555 30.0221C38.529 29.9069 38.5248 29.7877 38.5425 29.6709C38.5446 29.5018 38.5655 29.3335 38.6049 29.1691C38.6447 28.9859 38.6921 28.7953 38.7419 28.5945L39.3127 27.5659C39.375 27.4684 39.4459 27.3769 39.5246 27.2924C39.616 27.192 39.699 27.0917 39.7738 26.9913C39.8641 26.9037 39.9399 26.8021 39.9981 26.6903C40.0454 26.5975 40.0628 26.4923 40.048 26.3892L38.7793 26.7404L37.9095 26.4394H37.3113L36.4414 25.8899L36.4564 25.2451ZM38.7195 21.1129L38.894 21.015L39.5894 20.7641L40.2873 20.6136L41.1571 20.162L41.6805 20.1871L42.2762 20.2373L43.0489 20.6387L43.7966 21.3638L43.8714 22.0914L43.2234 22.3674L42.7025 22.3423L41.4089 22.2921L40.3396 22.0663L39.8411 21.6649L39.0934 21.5143H38.6946L38.7195 21.1129ZM41.212 27.7741L40.8132 28.577C40.7792 28.6285 40.75 28.6831 40.7259 28.7401C40.7007 28.8003 40.6799 28.8624 40.6636 28.9257C40.648 28.9793 40.6355 29.0338 40.6262 29.0888C40.6188 29.1434 40.623 29.199 40.6387 29.2519L41.2867 29.3021L42.0818 29.0763L42.7049 28.3512L42.7797 27.7239L42.3311 26.9989C42.2338 26.9527 42.1269 26.9312 42.0195 26.9361C41.9231 26.9518 41.8351 27.0006 41.7703 27.0741L41.212 27.7741ZM42.356 32.2902L42.7797 32.1397L43.1511 32.5411L43.7244 33.2662L44.3225 33.5923L45.3669 33.8934L45.6635 34.0189L46.2368 34.1418L46.9845 34.044L47.5827 34.0189L48.5797 33.8182L49.3274 33.5171L50.4964 33.492L51.7426 33.768L52.4131 34.0189C52.4616 34.2405 52.4701 34.4691 52.438 34.6938C52.3596 34.9651 52.1939 35.2025 51.9669 35.3687L50.945 36.1214L49.801 36.3221L48.4326 36.4475L47.5627 36.3973L46.6181 36.4475L45.9202 36.5479L44.4247 36.1464L43.8789 35.8705L43.1062 35.0199L42.9093 34.3927L42.4358 33.8432L42.2862 33.0655L42.1367 32.7393L42.356 32.2902ZM46.3439 18.1172L46.9421 17.9667L47.5627 17.9165L48.4326 18.2427L49.0806 18.5914L49.9754 19.4695L50.3493 21.3713L50.0751 22.9745L50.1001 24.1763L50.1748 25.2275H50.1997C50.2561 25.2457 50.3151 25.2542 50.3742 25.2526C50.4496 25.2519 50.5248 25.2435 50.5985 25.2275C50.6794 25.2288 50.7595 25.2117 50.8328 25.1774C50.9076 25.1448 50.9948 25.1021 51.0945 25.0519C51.1356 25.0328 51.1734 25.0074 51.2067 24.9767C51.255 24.9388 51.3008 24.8977 51.3438 24.8537C51.3704 24.8397 51.3955 24.8229 51.4186 24.8035L51.5183 24.7534C51.5332 24.7358 51.5581 24.7032 51.593 24.653C51.6279 24.6028 51.6578 24.5526 51.6927 24.5025L52.4131 24.0007L52.6623 23.6018L53.2356 23.2254L54.1802 22.7989L54.8756 22.5731L55.6233 22.7989L55.6607 22.9243C55.6659 22.9525 55.6789 22.9785 55.6981 22.9996C55.7101 23.0275 55.7269 23.053 55.748 23.0749C55.7697 23.096 55.795 23.113 55.8227 23.1251C55.8664 23.1938 55.8961 23.2705 55.91 23.3509C55.9195 23.412 55.9061 23.4746 55.8726 23.5265C55.8101 23.6677 55.7393 23.8051 55.6607 23.938C55.5859 24.0634 55.5137 24.1888 55.4489 24.3018C55.359 24.4387 55.259 24.5687 55.1498 24.6906C55.0471 24.8017 54.9296 24.8979 54.8008 24.9767C54.6811 25.098 54.5432 25.1996 54.3921 25.2777C54.2496 25.3578 54.093 25.4089 53.931 25.4283L53.7066 25.5035C53.6586 25.5204 53.608 25.5289 53.5571 25.5286L53.42 25.5788C53.3694 25.6037 53.3238 25.6377 53.2854 25.6792C53.245 25.716 53.1986 25.7457 53.1483 25.767C53.0885 25.7921 53.0262 25.8222 52.9614 25.8548C52.9012 25.8695 52.8427 25.8905 52.7869 25.9175C52.7562 25.9361 52.7225 25.9488 52.6872 25.9551C52.6384 26.0033 52.584 26.0455 52.5252 26.0806C52.4735 26.1104 52.4193 26.1356 52.3632 26.1559L51.8174 26.1809L51.4186 26.3039L50.1723 26.9311L50.1474 27.4831L50.1723 28.9332L50.0228 30.3107L49.3274 31.816L48.7541 32.1673L47.984 31.5149L47.6599 30.4888L47.5353 29.6132L47.6849 28.2358L47.5852 27.0089V24.6706L47.4356 23.6444V22.9419L47.5852 21.991L47.4605 21.0878V20.6889L47.2362 20.0867L46.815 19.4118L46.2168 18.6591L46.142 18.3857L46.3439 18.1172Z" fill="#835733"/>
<path d="M37.0997 39.3176L36.8504 39.5685L36.5713 39.5886L36.322 39.8043L35.7213 39.9775L35.2228 40.281L34.687 40.4968L34.1287 40.5395L33.5055 40.7778L33.184 40.8631L32.7129 40.8857L32.3266 40.7126L32.2394 40.562L32.3465 39.9775L32.8201 39.8696L33.528 39.6187L33.8071 39.4029L34.2558 39.0793L35.2228 38.6678L36.3818 38.4294L36.7034 38.5173L36.8753 38.6251V38.6026L36.9825 37.9126L37.0025 37.5664L36.8529 36.8312L36.6809 36.6155L36.2747 36.5728L35.5867 36.8739L35.3524 37.1549L35.1805 37.3707L34.1486 37.885C34.0075 37.9929 33.8478 38.0737 33.6775 38.1233C33.4967 38.1798 33.3085 38.2086 33.1192 38.2086H32.6207L32.0848 38.0155L31.8356 37.9502L31.4069 37.6542L31.2997 37.5463L31.3221 37.3105L31.7509 37.18L32.0724 37.2226L32.3515 37.0922L32.7379 37.0495L33.5105 36.618L33.8121 36.4449L34.2408 36.2065L34.52 35.7976L35.0334 35.4739L35.4646 34.9721H35.8933L36.641 34.9069L36.8778 34.8843C37.0977 34.8169 37.3242 34.774 37.5533 34.7564C37.8381 34.7045 38.1317 34.734 38.4007 34.8417L38.8743 35.2305L39.0886 35.5968L39.1958 35.9004L39.2382 36.2241L39.1734 36.6782L39.1086 36.9291L38.9366 37.4911L38.8294 38.0305V38.8886L38.7646 39.5158L38.6151 40.1857L38.4655 40.5294V41.242L40.0756 40.552L40.634 40.3011L41.7705 39.8896C41.9249 39.9469 42.0872 39.9799 42.2516 39.9875C42.4178 39.9942 42.5843 39.99 42.75 39.9749C42.9088 39.9621 43.0663 39.937 43.2211 39.8997C43.3781 39.8646 43.5352 39.8319 43.6947 39.8043C43.9332 39.7591 44.179 39.7703 44.4125 39.837C44.5205 39.8688 44.6154 39.9348 44.6832 40.0251C44.751 40.1155 44.7881 40.2255 44.7889 40.3387L44.3677 41.0463C44.2635 41.0974 44.1628 41.1552 44.0661 41.2194C43.9813 41.2771 43.8866 41.3348 43.7869 41.3925C43.6905 41.4545 43.5855 41.5018 43.4754 41.533C43.3322 41.5709 43.1846 41.5886 43.0367 41.5857H42.1244L41.1997 41.824L40.3797 41.8993L39.7142 42.3534H39.0712L38.1265 42.8301L37.4187 43.0459L37.0548 43.1964L37.2691 43.2817L37.6131 43.4975L38.2138 43.6505L38.4929 43.8864L38.5777 44.6391L38.4281 45.1132L38.5777 45.615L38.3858 46.2197L38.3633 46.7215L38.4481 47.2408L38.3633 48.1917L38.1914 48.8817L38.1689 49.3584L37.8474 49.81L37.7203 50.244C37.6312 50.316 37.5479 50.3948 37.471 50.4799C37.3913 50.5677 37.3165 50.653 37.2442 50.7308C37.1672 50.8057 37.0838 50.8737 36.995 50.934C36.9009 51.0003 36.7952 51.048 36.6834 51.0745C36.6795 51.0508 36.6709 51.0281 36.658 51.0078C36.6452 50.9876 36.6284 50.9701 36.6086 50.9566C36.5651 50.9312 36.5181 50.9126 36.4691 50.9014C36.4111 50.9021 36.3533 50.8954 36.2971 50.8813C36.2711 50.876 36.2465 50.8655 36.2246 50.8504C36.2028 50.8353 36.1842 50.816 36.17 50.7935L36.2771 50.2114L36.4491 49.7999L36.3195 49.391L36.4491 49.0673L36.4691 48.7211L36.4915 48.2193L36.3619 47.6347L36.4043 47.1605L36.4691 46.4254L36.3195 45.4218L36.4043 45.171L36.2771 44.6541L35.998 44.2853L35.7487 44.0495H35.3948L34.8963 43.9616L34.3978 44.3079L33.6501 44.4158L32.9024 44.6667H32.4737L31.9378 44.9702L31.3795 45.186L30.8436 45.5749L30.5644 45.4444L30.1557 45.467C29.9499 45.569 29.7219 45.6174 29.4927 45.6075C29.2767 45.6119 29.0678 45.5298 28.9119 45.3792L28.5381 44.91L28.1094 44.4559L28.4957 44.1323L29.1163 43.9817L30.6392 43.6781L31.1552 43.4423L32.5709 43.0961L33.1516 42.8151L34.0962 42.4688L35.0932 42.2305L36.1874 41.7287L37.0224 41.4929L36.98 40.6273L37.152 40.2384L37.0025 39.6337L37.0997 39.3176Z" fill="#835733"/>
<path d="M55.1862 39.0388L55.1164 39.7914L54.907 40.4011V41.0108L54.8821 41.5728L54.603 42.6516L54.5107 43.0506L54.3238 43.3792V43.7079C54.2509 44.0576 54.1167 44.3915 53.9275 44.6939C53.7892 44.9255 53.6216 45.138 53.429 45.3262L53.0801 45.6072L52.776 45.7728L52.1703 45.4918L52.5666 45.0452V44.6462L52.6588 44.014V43.59L52.7062 43.2161L52.7286 42.4635L52.7535 42.4158L52.0955 42.885L51.8737 42.9678C51.8039 42.9903 51.7366 43.0104 51.6743 43.0255C51.612 43.0405 51.5497 43.0832 51.4899 43.1083C51.4287 43.1309 51.3663 43.1502 51.3029 43.166C51.1634 43.2136 51.0313 43.2513 50.9066 43.2839C50.7824 43.3145 50.6519 43.3057 50.5328 43.2588C50.3782 43.2588 50.2661 43.2588 50.1963 43.2713C50.0919 43.2808 49.9871 43.285 49.8822 43.2839L49.1594 43.329L48.5762 43.0782L48.2023 42.8273L48.0628 42.5914L48.1101 42.3807L48.484 42.1298L48.8329 42.1774L49.1594 42.1298L49.6704 41.8964L50.1365 41.8739L50.5328 41.7559C50.5707 41.7374 50.6099 41.7215 50.6499 41.7083C50.6997 41.692 50.7467 41.6683 50.7895 41.638L50.9291 41.5904L51.0687 41.5452C51.154 41.5458 51.2387 41.5296 51.3179 41.4975C51.3952 41.4674 51.4899 41.4273 51.5971 41.3796C51.6169 41.3824 51.637 41.3824 51.6569 41.3796C51.6842 41.3687 51.7108 41.3562 51.7366 41.342C51.7552 41.3251 51.7752 41.31 51.7964 41.2968C51.8251 41.2759 51.8518 41.2524 51.8762 41.2266C51.956 41.1638 52.0183 41.1162 52.0631 41.0861C52.108 41.0559 52.1529 41.0258 52.1927 41.0033C52.2309 40.9801 52.266 40.9523 52.2974 40.9205H52.594L52.9205 41.0384L52.943 40.8979L52.9903 40.381L53.0601 40.0298L53.1773 39.6535L53.1299 39.2545L52.6887 39.3499L52.4071 39.5832L51.8014 39.937L51.2656 40.1226L50.4979 40.2631L49.8922 40.2882L49.6031 40.1176L49.2317 40.0925L49.0672 39.9997L48.5089 39.7488L47.9955 39.6083L47.8808 39.4452L47.6939 39.2094L47.6689 38.8807L47.7387 38.695H48.0652L48.5637 38.6223H48.9351L49.4959 38.695C49.8917 38.6958 50.2834 38.6156 50.6474 38.4592C51.0138 38.3036 51.3503 38.1456 51.6619 37.99L52.1753 37.6864L52.4769 37.709L53.3418 37.132L53.7381 36.9664H54.588L55.3108 37.2474C55.4082 37.4036 55.468 37.5806 55.4853 37.7642C55.4933 37.9155 55.473 38.067 55.4255 38.2108C55.3803 38.3505 55.3262 38.4871 55.2635 38.6198C55.1981 38.749 55.1713 38.8945 55.1862 39.0388ZM58.2145 34.6055L59.1691 34.6757L59.7299 35.027L60.6621 35.3556L61.3849 36.0832L61.1731 37.561L61.2204 38.123L61.2453 38.8983L61.3849 39.7638L61.1506 40.376L61.2902 41.1011V41.6656L61.041 42.2979L61.2055 42.8599L60.8092 43.6828L60.5599 43.7982L60.5126 44.3151C60.4709 44.3712 60.4326 44.4299 60.3979 44.4907C60.3689 44.5389 60.3455 44.5902 60.3281 44.6437C60.2841 44.6861 60.2448 44.7332 60.211 44.7842C60.1809 44.8273 60.1573 44.8747 60.1412 44.9247C60.111 44.954 60.0834 44.9859 60.0589 45.0201C60.0365 45.0502 60.0166 45.0728 60.0016 45.0903C59.9872 45.118 59.9667 45.142 59.9418 45.1606C59.9251 45.1733 59.9053 45.1812 59.8845 45.1832C59.8461 45.225 59.7982 45.2569 59.7449 45.276C59.7216 45.2846 59.6966 45.287 59.6722 45.283C59.6477 45.2791 59.6247 45.2689 59.6053 45.2534H59.5106L59.1617 45.5821L58.6258 45.8631L58.2295 46.0036L57.8431 46.415L57.7484 46.9168L57.5166 47.105L56.6069 47.7849L56.3751 48.2541L56.1408 48.4172L55.8342 48.924L55.4604 49.6516L55.5077 50.2612L55.8791 50.7781L56.1283 50.8709L56.572 50.9663L57.2474 50.7154L57.7833 50.4645L58.4588 50.324L58.7853 49.8774L58.7155 49.5964C58.8189 49.3851 58.8394 49.1423 58.7728 48.9165C58.7181 48.587 58.5495 48.2875 58.2968 48.0709L58.1323 47.7197L58.227 47.3459L58.6681 47.2505L59.2987 47.2756L59.8346 47.3684L60.5549 47.6494L61.1855 48.1186L61.4348 48.9641L61.365 49.1749L61.3176 49.8774L61.1083 50.2311L60.9213 50.3716L60.4777 51.1243L60.1985 51.6261L59.3137 51.8394L58.9398 52.0501L58.4413 52.5519L57.6737 52.8555L56.9035 52.9508L56.5296 53.2795L55.9937 53.1616L55.1338 53.139L54.5282 52.8881L53.9674 52.3713L53.758 51.7867L53.6882 51.3878V50.9186L53.6184 50.472L53.7804 49.9552L53.9923 49.6039L54.1543 48.8763L54.3861 48.5025L54.6204 48.2666L54.76 47.938L55.3183 47.1652L55.8168 46.6258L56.0261 46.0864L56.3527 45.9208L56.724 45.6875L56.8885 45.4366L57.0979 45.0627L57.3073 44.7792L57.8058 44.4756L58.055 44.0993L57.9852 43.8885L58.4513 43.7706L59.057 42.8323L59.1043 41.4273L59.2439 40.0423L59.1268 39.0388L59.2439 38.4291L58.9647 37.7492V37.0216C58.9316 37.0051 58.8999 36.9858 58.87 36.9639C58.8455 36.9454 58.8221 36.9253 58.8002 36.9037C58.7725 36.8907 58.7484 36.8709 58.7305 36.846C58.7149 36.8213 58.7071 36.7924 58.708 36.7632C58.6638 36.7499 58.6235 36.7258 58.5909 36.6929C58.5586 36.6598 58.5347 36.6193 58.5211 36.575C58.4864 36.5574 58.4551 36.5336 58.4289 36.5047C58.4114 36.5047 58.394 36.5047 58.369 36.4696C58.3362 36.4313 58.3093 36.3881 58.2893 36.3417C58.2419 36.294 58.1996 36.2488 58.1597 36.2012C58.1166 36.1434 58.0814 36.0801 58.055 36.013C57.9855 35.9413 57.9229 35.8632 57.8681 35.7797C57.8085 35.6885 57.7544 35.5938 57.7061 35.4961V34.8639L58.2145 34.6055Z" fill="#835733"/>
<path d="M13.9303 38.7736L13.9054 38.8137L13.7833 38.9944L13.7085 39.1851L13.6113 39.4359L13.5689 39.6868L13.5938 40.141L13.6686 40.289L13.9602 40.3944L14.1222 40.3768L14.2693 40.3517C14.2818 40.3517 14.3042 40.3291 14.3441 40.304L14.4662 40.2112C14.5036 40.1836 14.5435 40.161 14.5809 40.1384C14.6072 40.1223 14.6347 40.1081 14.6631 40.0958C14.7361 40.0905 14.8094 40.0905 14.8824 40.0958C14.9921 40.0958 15.0569 40.1309 15.0794 40.1786C15.0814 40.1879 15.0857 40.1965 15.0918 40.2037C15.1004 40.2169 15.1071 40.2312 15.1118 40.2463C15.123 40.2623 15.1314 40.2801 15.1367 40.299C15.1383 40.314 15.1383 40.3292 15.1367 40.3442C15.1338 40.3766 15.1227 40.4077 15.1043 40.4345C15.0901 40.463 15.0706 40.4886 15.0469 40.5098L14.8276 40.7607L14.7204 40.8259L14.6058 40.9915L14.4089 41.0492L14.2793 41.0893L14.0425 41.1646H13.8705L13.6736 41.1897L13.4617 41.0893L13.0704 40.8961L12.9408 40.6653L12.8985 40.5173V40.4345L12.8661 40.2714L12.8262 39.8926L12.9084 39.3406L13.063 39.0446L13.1926 38.8137L13.3496 38.6406L13.4468 38.3897L13.6013 38.2567L13.888 38.0059L14.0849 37.9055C14.1194 37.8993 14.1535 37.8909 14.1871 37.8804C14.2313 37.8696 14.2763 37.8621 14.3216 37.8578C14.3665 37.8553 14.4114 37.8553 14.4562 37.8578C14.5022 37.8584 14.5477 37.8669 14.5908 37.8829L14.7304 37.9331L14.87 37.9908L14.9921 38.0234L15.0569 38.1539L15.0245 38.2216L14.9672 38.2944L14.8451 38.3195L14.6656 38.3847L14.5584 38.4023H14.4762C14.3796 38.4072 14.2859 38.4375 14.2045 38.4901C14.0953 38.5653 14.0021 38.6617 13.9303 38.7736Z" fill="#835733"/>
<path d="M18.3608 39.1175V39.3232L18.3932 39.391C18.3953 39.4152 18.3953 39.4395 18.3932 39.4637C18.3942 39.4695 18.3942 39.4755 18.3932 39.4813C18.3881 39.4881 18.3811 39.4933 18.3732 39.4963V39.6945L18.3483 40.0659L18.3333 40.2139V40.3117C18.3313 40.3267 18.3313 40.3419 18.3333 40.3569V40.3945C18.3308 40.4061 18.3308 40.4181 18.3333 40.4297V40.4673C18.3311 40.4865 18.3311 40.5058 18.3333 40.525V40.6404L18.276 40.8135C18.2552 40.8486 18.2377 40.8856 18.2237 40.9239C18.2185 40.9387 18.2143 40.9538 18.2112 40.9691C18.2112 40.9816 18.2112 40.9866 18.1838 40.9892C18.177 40.9931 18.1692 40.9952 18.1614 40.9952C18.1535 40.9952 18.1458 40.9931 18.1389 40.9892H18.0966C18.0966 40.9892 18.0966 40.9892 18.0816 40.9892C18.0722 40.9932 18.0637 40.9991 18.0567 41.0067C18.0567 41.0067 18.0567 41.0067 18.0567 41.0218L18.0018 41.0795L17.9196 41.1949C17.8878 41.2053 17.8539 41.2077 17.8209 41.2021C17.7879 41.1964 17.7568 41.1827 17.7302 41.1623C17.6901 41.1362 17.6566 41.1011 17.6324 41.0597C17.6081 41.0183 17.5938 40.9718 17.5906 40.9239L17.5756 40.4949L17.6255 40.2089V40.0358L17.6006 39.8451L17.5507 39.6243V39.5239L17.5657 39.3935C17.5759 39.3565 17.5759 39.3175 17.5657 39.2806C17.5657 39.2254 17.5657 39.1827 17.5657 39.1551C17.5457 39.0846 17.5457 39.0099 17.5657 38.9394L17.5432 38.8089L17.4859 38.7336L17.4186 38.7085L17.3613 38.553C17.2678 38.5389 17.1723 38.5501 17.0846 38.5856C17.0105 38.6086 16.9412 38.6452 16.8802 38.6935L16.7332 38.8014C16.7221 38.8098 16.7135 38.821 16.7083 38.834L16.6908 38.8666C16.6831 38.874 16.6764 38.8825 16.6709 38.8917C16.6628 38.9016 16.6561 38.9126 16.6509 38.9243L16.5861 38.9895C16.5757 38.9975 16.5672 39.0078 16.5612 39.0196L16.5438 39.0472L16.5238 39.0673C16.5187 39.0735 16.5117 39.0779 16.5039 39.0799C16.5039 39.0799 16.5039 39.0974 16.4839 39.0974C16.4809 39.0992 16.4775 39.1001 16.474 39.1001C16.4705 39.1001 16.467 39.0992 16.464 39.0974C16.4603 39.1249 16.4603 39.1527 16.464 39.1802V39.2555C16.4654 39.2797 16.4654 39.304 16.464 39.3282C16.464 39.3508 16.464 39.3709 16.464 39.3859L16.4815 39.6368L16.4964 40.0157L16.4815 40.2465L16.464 40.3444C16.462 40.3593 16.462 40.3745 16.464 40.3895V40.6454L16.3643 40.8261C16.3444 40.8712 16.3269 40.9039 16.3169 40.9289C16.3088 40.943 16.3029 40.9582 16.2995 40.9741L16.1699 41.0644L16.0552 41.1798C16.0305 41.19 16.0033 41.1921 15.9773 41.1858C15.9514 41.1795 15.9281 41.1651 15.9107 41.1447C15.849 41.0762 15.8159 40.9863 15.8185 40.8938L15.8409 39.8501V39.5992C15.8422 39.5842 15.8422 39.5691 15.8409 39.554C15.8383 39.5273 15.8383 39.5005 15.8409 39.4738C15.8341 39.4517 15.8299 39.429 15.8284 39.406C15.8264 39.3877 15.8264 39.3692 15.8284 39.3508C15.8284 39.3358 15.8284 39.2931 15.8284 39.2279C15.8284 39.1626 15.8284 39.1225 15.8284 39.1125C15.826 39.0933 15.826 39.0739 15.8284 39.0548C15.8256 39.0424 15.8256 39.0295 15.8284 39.0171V38.9895C15.8307 38.9486 15.8307 38.9075 15.8284 38.8666V38.7587V38.6834C15.8264 38.6701 15.8264 38.6566 15.8284 38.6433C15.8297 38.6266 15.8297 38.6098 15.8284 38.5931V38.0913L15.811 37.7852L15.7636 37.572V37.4064V37.1756L15.7312 36.9874C15.7312 36.9874 15.7312 36.9874 15.7188 36.9673C15.7175 36.9523 15.7175 36.9372 15.7188 36.9222C15.7146 36.9077 15.7096 36.8934 15.7038 36.8795C15.6986 36.8707 15.6928 36.8624 15.6864 36.8544C15.6677 36.8426 15.6523 36.8262 15.6415 36.8068C15.6338 36.7905 15.6271 36.7737 15.6216 36.7566C15.6124 36.742 15.6041 36.7269 15.5966 36.7114C15.5888 36.6922 15.5778 36.6744 15.5642 36.6587L15.5468 36.6361L15.5318 36.6085C15.5256 36.5943 15.5225 36.5789 15.5225 36.5634C15.5225 36.5478 15.5256 36.5325 15.5318 36.5182C15.5461 36.4855 15.5684 36.4571 15.5966 36.4354L15.7761 36.3853L15.8907 36.4028L16.0129 36.3853L16.145 36.4103L16.2746 36.4856L16.4466 36.6838L16.5039 36.8895L16.5363 37.1756V37.4892L16.5114 37.8028L16.4864 38.0662L16.5188 38.3949C16.5279 38.381 16.5388 38.3683 16.5512 38.3573C16.5691 38.3436 16.5857 38.3285 16.6011 38.3121C16.6034 38.3132 16.606 38.3138 16.6086 38.3138C16.6112 38.3138 16.6137 38.3132 16.616 38.3121H16.6335L16.6509 38.2946L16.6734 38.277L16.7407 38.2118C16.7655 38.2046 16.7879 38.1907 16.8055 38.1716C16.8279 38.149 16.8503 38.1214 16.8777 38.0888L16.9525 38.0311L17.0423 37.9558H17.0996L17.1644 37.9308L17.2142 37.9558L17.3613 37.8981C17.4668 37.8885 17.5731 37.9022 17.6728 37.9383C17.792 37.977 17.9011 38.0421 17.9919 38.129L18.0118 38.1641C18.02 38.1797 18.0292 38.1948 18.0392 38.2092L18.0716 38.2444C18.0811 38.2534 18.0935 38.2588 18.1065 38.2594L18.1514 38.3046C18.1514 38.3196 18.1713 38.3297 18.1713 38.3347C18.1713 38.3397 18.1713 38.3523 18.1713 38.3548C18.1713 38.3573 18.1713 38.3548 18.1838 38.3673C18.1804 38.3796 18.1804 38.3926 18.1838 38.4049C18.1866 38.4089 18.1904 38.4121 18.1947 38.4143C18.1991 38.4165 18.2039 38.4176 18.2087 38.4175C18.2109 38.4404 18.2177 38.4626 18.2287 38.4827C18.2372 38.5003 18.2472 38.5171 18.2586 38.5329L18.3309 38.6558L18.3483 38.7637L18.3608 39.1175Z" fill="#835733"/>
<path d="M20.7665 38.6654L20.7017 38.5826L20.6693 38.5249L20.612 38.427L20.5297 38.3769C20.4832 38.3799 20.4366 38.3799 20.3901 38.3769H20.2929C20.2573 38.3724 20.2213 38.3724 20.1857 38.3769L20.0387 38.412L19.8592 38.5525C19.8504 38.5631 19.8393 38.5717 19.8268 38.5776L19.7944 38.5951C19.7887 38.6051 19.78 38.613 19.7695 38.6177L19.7371 38.6353L19.6549 38.6855L19.6274 38.7106L19.5975 38.7256C19.5894 38.7279 19.5808 38.7279 19.5726 38.7256H19.5502H19.5327H19.5078C19.5055 38.7267 19.5029 38.7273 19.5003 38.7273C19.4977 38.7273 19.4952 38.7267 19.4928 38.7256L19.4754 38.7106H19.4355H19.3931C19.3847 38.7011 19.3732 38.6949 19.3607 38.693L19.2785 38.6604L19.2461 38.56L19.286 38.4045L19.3533 38.2966L19.4904 38.1661C19.4993 38.1579 19.5093 38.1512 19.5203 38.146L19.5576 38.1159L19.5975 38.0959L19.6549 38.0658H19.6748H19.7047C19.7112 38.0679 19.7182 38.0679 19.7246 38.0658H19.7521L19.8268 38.0231C19.8561 38.0222 19.8849 38.0154 19.9116 38.003C19.946 37.9869 19.978 37.9658 20.0063 37.9403C20.0063 37.9403 20.0237 37.9403 20.0387 37.9403C20.0552 37.938 20.072 37.938 20.0885 37.9403H20.1284C20.1442 37.9399 20.1593 37.9336 20.1708 37.9228L20.2755 37.8901L20.3328 37.9152H20.3976L20.5222 37.9503H20.6768L20.8637 37.983C20.8968 37.99 20.9287 38.0018 20.9584 38.0181C20.9788 38.0283 20.9973 38.0419 21.0132 38.0582L21.0731 38.1084C21.1113 38.121 21.1504 38.1302 21.1902 38.136C21.2041 38.1567 21.22 38.1761 21.2376 38.1937C21.2533 38.2097 21.2732 38.2209 21.2949 38.2263L21.3373 38.2715C21.3444 38.2803 21.3495 38.2906 21.3522 38.3016C21.3571 38.3146 21.3629 38.3272 21.3697 38.3392L21.3846 38.3593V38.3869C21.3846 38.3869 21.3846 38.3869 21.3846 38.3995C21.3831 38.4035 21.3831 38.408 21.3846 38.412C21.3812 38.4243 21.3812 38.4373 21.3846 38.4496C21.3906 38.4678 21.3955 38.4862 21.3996 38.5048C21.3996 38.5199 21.3996 38.5425 21.3996 38.5701C21.3996 38.5977 21.3996 38.6278 21.3996 38.6604V38.7683V38.8912L21.3846 39.0643L21.4345 39.4181V39.7217L21.4395 40.098L21.4145 40.2962L21.3821 40.8206L21.26 41.0263L21.1703 41.094L20.9335 41.1518L20.7939 41.1191H20.7291H20.6793L20.6344 41.1367L20.5895 41.1518H20.4824H20.3926L20.2979 41.1392L20.1932 41.1467C20.1684 41.1495 20.1433 41.1495 20.1185 41.1467L20.0536 41.1292C20.0331 41.1195 20.0113 41.1128 19.9888 41.1091H19.9215C19.9002 41.1138 19.8781 41.1138 19.8567 41.1091L19.8169 41.0966L19.7795 41.0815C19.7623 41.0773 19.7443 41.0773 19.7271 41.0815C19.6991 41.0812 19.6713 41.0761 19.6449 41.0664C19.6184 41.0553 19.5933 41.0409 19.5701 41.0238C19.5484 41.0083 19.5284 40.9907 19.5103 40.9711C19.4937 40.955 19.4787 40.9374 19.4654 40.9184C19.429 40.9032 19.3953 40.882 19.3657 40.8557C19.3393 40.8313 19.3174 40.8024 19.3009 40.7704L19.2561 40.7202L19.2187 40.67C19.2087 40.6536 19.1979 40.6377 19.1863 40.6224L19.1613 40.5722L19.0816 40.4166C19.0816 40.3941 19.0816 40.374 19.0641 40.3539C19.0612 40.3379 19.0553 40.3226 19.0467 40.3088C19.0467 40.3088 19.0467 40.2862 19.0467 40.2761C19.0481 40.2653 19.0481 40.2543 19.0467 40.2435L19.0293 40.2009C19.0267 40.1901 19.0267 40.179 19.0293 40.1683L19.0542 40.0378L19.0691 40.0152C19.0691 40.0152 19.0691 39.9951 19.0866 39.9801H19.1015L19.119 39.9625L19.1339 39.9349L19.1514 39.9123L19.1913 39.7894C19.2087 39.7719 19.223 39.7516 19.2336 39.7292C19.2336 39.7041 19.2536 39.6765 19.266 39.6489C19.2713 39.6316 19.2798 39.6154 19.291 39.6012L19.3383 39.526L19.3632 39.5109C19.3744 39.5061 19.3834 39.4971 19.3882 39.4858C19.3988 39.4802 19.4075 39.4714 19.4131 39.4607C19.4198 39.4446 19.4248 39.4278 19.428 39.4106H19.4953C19.511 39.4081 19.527 39.4081 19.5427 39.4106H19.5851C19.5851 39.4106 19.6025 39.4106 19.605 39.393C19.6061 39.388 19.6061 39.3829 19.605 39.3779C19.6117 39.3636 19.6201 39.3501 19.6299 39.3378C19.6299 39.3378 19.6299 39.3378 19.6524 39.3378L19.6848 39.3202L19.7022 39.3027L19.7197 39.2876C19.7354 39.29 19.7513 39.29 19.767 39.2876C19.7741 39.2678 19.7842 39.2492 19.7969 39.2324C19.8076 39.2227 19.8204 39.2158 19.8343 39.2123C19.8343 39.2299 19.8518 39.2349 19.8567 39.2324C19.8617 39.2299 19.8717 39.2123 19.8817 39.1797C19.8913 39.1832 19.9019 39.1832 19.9116 39.1797L19.939 39.1672L19.9639 39.1521C19.9671 39.1548 19.971 39.1562 19.9751 39.1562C19.9792 39.1562 19.9832 39.1548 19.9864 39.1521H20.0138L20.0462 39.1346C20.0601 39.1315 20.0746 39.1315 20.0885 39.1346L20.3652 39.0919C20.3652 39.0919 20.3652 39.0919 20.3777 39.0769L20.4051 39.0593C20.4148 39.0622 20.4252 39.0622 20.435 39.0593L20.4624 39.0342L20.6194 38.9364L20.7416 38.8937L20.7665 38.6654ZM20.7341 40.4668V40.4016L20.759 40.088L20.7839 39.7844V39.6113V39.3604L20.759 39.3102C20.7327 39.3135 20.7069 39.3194 20.6817 39.3278L20.6369 39.3428C20.623 39.3473 20.6097 39.3531 20.597 39.3604L20.5546 39.3754C20.5414 39.3866 20.5262 39.3951 20.5098 39.4005L20.4724 39.4181C20.4557 39.4175 20.4392 39.4218 20.425 39.4306L20.3752 39.4507L20.2929 39.5009H20.2456C20.2322 39.5138 20.2171 39.5248 20.2007 39.5335H20.1633H20.1384H20.1135C20.1069 39.5348 20.1001 39.5348 20.0935 39.5335C20.087 39.5356 20.0801 39.5356 20.0736 39.5335C20.0696 39.5318 20.0654 39.531 20.0611 39.531C20.0568 39.531 20.0526 39.5318 20.0487 39.5335C20.0459 39.5347 20.0429 39.5353 20.0399 39.5353C20.0369 39.5353 20.034 39.5347 20.0312 39.5335L20.0163 39.5485C20.0062 39.5625 19.9978 39.5777 19.9913 39.5937C19.9865 39.6067 19.9807 39.6193 19.9739 39.6313L19.9589 39.664C19.9522 39.6778 19.9464 39.692 19.9415 39.7066H19.9265L19.9091 39.7217C19.9103 39.7244 19.9109 39.7274 19.9109 39.7304C19.9109 39.7335 19.9103 39.7364 19.9091 39.7392C19.9034 39.7411 19.8973 39.7411 19.8916 39.7392C19.8797 39.746 19.8688 39.7544 19.8592 39.7643L19.8343 39.7894L19.8094 39.9374L19.8443 40.0277L19.9415 40.1758C19.9561 40.2027 19.9776 40.2252 20.0038 40.241C20.0254 40.2565 20.0479 40.2707 20.0711 40.2837C20.0932 40.2969 20.1166 40.3079 20.1409 40.3163L20.2605 40.3564L20.4799 40.374C20.4799 40.374 20.5197 40.3915 20.582 40.3941C20.6444 40.3966 20.6793 40.3941 20.6842 40.3941L20.7341 40.4668Z" fill="#835733"/>
<path d="M23.1287 40.5015V40.5567V40.9029L23.0539 41.076L22.9069 41.1513L22.6576 41.1764L22.518 41.0359L22.4682 40.8703L22.3884 40.7147V40.5015L22.4208 40.3509L22.3984 39.3474L22.3411 39.1742L22.3884 39.0588L22.3486 38.7302V38.4165L22.3062 38.3337L22.2489 38.1205L22.209 38.0226L22.2588 37.9398L22.3635 37.9072L22.528 37.9474L22.7249 38.0628L22.8795 38.2434L22.9044 38.3915L22.9542 38.6649L23.0589 38.5069L23.2159 38.3839L23.2733 38.2685L23.3879 38.2183L23.6646 38.0879L23.8864 37.9398L24.1631 37.9148L24.2204 38.0302L24.2852 38.1531L24.1556 38.3839L23.9063 38.6348L23.6945 38.7502L23.6122 38.8907L23.4079 39.0714L23.2508 39.2871L23.1611 39.538L23.1387 39.7438V40.1151V40.1929C23.1364 40.2053 23.1364 40.2181 23.1387 40.2305V40.2882C23.1383 40.3085 23.1435 40.3284 23.1536 40.3459L23.1287 40.5015Z" fill="#835733"/>
<path d="M26.9887 39.116V39.3669L27.0136 39.4321C27.0158 39.4571 27.0158 39.4823 27.0136 39.5074C27.0147 39.5123 27.0147 39.5175 27.0136 39.5224C27.0136 39.5224 27.0136 39.5224 26.9936 39.54V39.7457L26.9513 40.107L26.9288 40.255L26.9114 40.3554C26.909 40.3703 26.909 40.3856 26.9114 40.4005V40.4281C26.9064 40.4723 26.9064 40.5169 26.9114 40.5611V40.6765L26.8466 40.8496C26.8255 40.8828 26.8064 40.9171 26.7893 40.9525C26.7822 40.9668 26.7772 40.982 26.7743 40.9977L26.6921 41.0203L26.6347 41.078L26.545 41.1858C26.5126 41.1952 26.4784 41.1964 26.4453 41.1894C26.4123 41.1825 26.3815 41.1674 26.3556 41.1457C26.3161 41.1174 26.2843 41.0796 26.263 41.0358C26.2416 40.992 26.2315 40.9435 26.2334 40.8948V40.4683V40.1873L26.2509 40.0142V39.826L26.2085 39.5952L26.226 39.4873L26.2509 39.3644C26.261 39.3469 26.2662 39.3269 26.2659 39.3066V39.2339C26.2581 39.1984 26.2581 39.1615 26.2659 39.126C26.2649 39.0878 26.2753 39.0503 26.2958 39.0181L26.2708 38.8877L26.221 38.8049L26.1562 38.7798L26.1238 38.7221C26.0918 38.6702 26.0422 38.6319 25.9842 38.6142C25.9592 38.6031 25.9317 38.5989 25.9046 38.602C25.8774 38.6051 25.8516 38.6153 25.8297 38.6317L25.6826 38.6493C25.6714 38.6589 25.6613 38.6699 25.6527 38.6819L25.6328 38.707L25.6128 38.7396L25.5929 38.7647L25.5181 38.8299L25.4907 38.8701C25.4821 38.8821 25.472 38.8931 25.4608 38.9027L25.5505 39.1536V40.3052L25.4209 40.807L25.2564 41.0579L25.1991 41.1658L25.0695 41.2059L24.8975 41.0102L24.8651 40.7794V40.3177L24.8402 39.9389L24.8651 39.4195L24.8152 39.1084L24.7504 38.8575L24.6607 38.6067L24.6283 38.4235L24.5859 38.3332L24.6283 38.2178H24.8402L25.0894 38.3583L25.1866 38.3834L25.3013 38.4737V38.4586L25.3212 38.4285C25.331 38.4136 25.3437 38.4008 25.3586 38.3909L25.3935 38.3558L25.4384 38.3181H25.4558L25.4807 38.3056L25.4957 38.2905L25.5206 38.273L25.5854 38.2153C25.6117 38.2082 25.6358 38.1944 25.6552 38.1751C25.6828 38.1493 25.7086 38.1216 25.7325 38.0923C25.743 38.0854 25.7549 38.0811 25.7674 38.0798H25.8147C25.8295 38.0825 25.8447 38.0825 25.8596 38.0798C25.8676 38.0786 25.8751 38.0754 25.8817 38.0706C25.8882 38.0658 25.8934 38.0595 25.897 38.0522H26.0041L26.3307 38.1676C26.4059 38.1587 26.4819 38.1746 26.5475 38.2127C26.6 38.2493 26.6477 38.2922 26.6896 38.3407C26.6884 38.3435 26.6878 38.3465 26.6878 38.3495C26.6878 38.3525 26.6884 38.3555 26.6896 38.3583C26.6879 38.3534 26.6879 38.3481 26.6896 38.3432L26.707 38.3257C26.7108 38.316 26.7168 38.3074 26.7245 38.3006L26.7469 38.2855H26.7643L26.7893 38.273L26.8042 38.2579C26.811 38.2501 26.8196 38.2441 26.8291 38.2403L26.8939 38.1826H26.9313L26.9762 38.1651C26.9903 38.1594 27.003 38.1509 27.0136 38.14L27.0585 38.0998C27.068 38.0929 27.0791 38.0886 27.0909 38.0873H27.1407C27.1556 38.0898 27.1707 38.0898 27.1856 38.0873C27.1933 38.0854 27.2006 38.082 27.207 38.0773C27.2134 38.0726 27.2189 38.0666 27.223 38.0597L27.3202 38.002H27.3775L27.4423 37.9769H27.5744L27.7214 37.9292C27.8136 37.9238 27.9058 37.9401 27.9906 37.9769C28.0925 38.0277 28.1839 38.0975 28.2598 38.1826C28.2664 38.1973 28.2739 38.2116 28.2822 38.2253C28.2893 38.24 28.2985 38.2535 28.3097 38.2654C28.3192 38.2806 28.3301 38.2948 28.3421 38.3081C28.3505 38.3172 28.3621 38.3226 28.3745 38.3231L28.4168 38.3683C28.4239 38.3771 28.4291 38.3874 28.4318 38.3984C28.4366 38.4114 28.4425 38.424 28.4492 38.436L28.4642 38.4561V38.4762C28.4627 38.4802 28.4627 38.4847 28.4642 38.4887C28.4663 38.5124 28.4731 38.5354 28.4841 38.5565C28.4924 38.5734 28.5024 38.5894 28.514 38.6041L28.5788 38.7371V38.845V38.9679V39.1812V39.3869L28.6038 39.4522C28.606 39.4772 28.606 39.5024 28.6038 39.5274C28.6049 39.5324 28.6049 39.5375 28.6038 39.5425C28.6038 39.5425 28.6038 39.5425 28.5838 39.56V39.7658L28.5415 40.1271L28.519 40.2751L28.5016 40.3755C28.4992 40.3904 28.4992 40.4057 28.5016 40.4206V40.4482C28.4966 40.4924 28.4966 40.537 28.5016 40.5812V40.6966L28.4368 40.8697C28.4157 40.9028 28.3965 40.9372 28.3795 40.9726C28.3724 40.9869 28.3674 41.0021 28.3645 41.0177L28.2822 41.0403L28.2249 41.098L28.1352 41.2059C28.0971 41.218 28.0564 41.2187 28.0179 41.2081C27.9795 41.1974 27.9449 41.1757 27.9183 41.1457C27.8789 41.1174 27.8471 41.0796 27.8257 41.0358C27.8044 40.992 27.7943 40.9435 27.7962 40.8948V40.4683L27.8535 40.1873L27.871 40.0142V39.826L27.8286 39.5952L27.8461 39.4873L27.871 39.3644C27.8811 39.3469 27.8863 39.3269 27.8859 39.3066V39.2339C27.877 39.185 27.877 39.1348 27.8859 39.0859C27.8825 39.0339 27.8928 38.9819 27.9159 38.9353L27.8909 38.8049L27.8411 38.7221L27.7763 38.697L27.7439 38.6393C27.7142 38.5964 27.6741 38.5619 27.6274 38.5391C27.5807 38.5163 27.529 38.5058 27.4772 38.5088C27.392 38.4949 27.3046 38.5089 27.2279 38.5489L27.0809 38.6493C27.0687 38.6622 27.0593 38.6776 27.0535 38.6945C27.0449 38.7116 27.0375 38.7292 27.031 38.7472C27.0272 38.7689 27.0205 38.7899 27.0111 38.8099C27.0063 38.8226 26.9996 38.8344 26.9912 38.845L26.9762 38.8626L26.9912 38.8776V38.9855L26.9887 39.116Z" fill="#835733"/>
</svg>
