<svg width="90" height="220" viewBox="0 0 90 220" fill="none" xmlns="http://www.w3.org/2000/svg">
<g clip-path="url(#clip0_37_341)">
<path d="M89.7702 45.0141V167.423C89.7686 177.877 86.0971 187.999 79.3968 196.022C81.6029 196.434 83.7689 197.039 85.8702 197.828C86.2396 197.982 86.5334 198.276 86.6881 198.646C86.7647 198.828 86.8041 199.023 86.8041 199.22C86.8041 199.417 86.7647 199.612 86.6881 199.793C86.4687 200.332 81.0326 212.965 69.5519 217.755C66.0974 219.128 62.4063 219.806 58.6897 219.751C54.1334 219.717 49.6153 218.918 45.3238 217.386C41.0191 218.919 36.4875 219.719 31.9181 219.751C28.2048 219.805 24.5172 219.127 21.0658 217.755C9.58516 212.995 4.10916 200.362 3.91964 199.793C3.77048 199.426 3.77048 199.014 3.91964 198.646C3.99487 198.462 4.10594 198.295 4.24636 198.155C4.38679 198.014 4.55376 197.903 4.73755 197.828C6.68267 197.097 8.68423 196.526 10.7223 196.121C3.95788 188.09 0.248379 177.925 0.249024 167.423V45.0141C0.424494 33.2563 5.21647 22.0395 13.5898 13.7869C21.963 5.5342 33.2455 0.908203 44.9997 0.908203C56.7539 0.908203 68.0363 5.5342 76.4096 13.7869C84.7828 22.0395 89.5748 33.2563 89.7503 45.0141H89.7702ZM86.7779 167.423V45.0141C86.6084 34.0463 82.1344 23.5851 74.3216 15.889C66.5089 8.1928 55.9841 3.87908 45.0196 3.87908C34.0551 3.87908 23.5304 8.1928 15.7176 15.889C7.90482 23.5851 3.43077 34.0463 3.26133 45.0141V167.423C3.25728 178.412 7.59554 188.957 15.3305 196.76C14.0752 193.02 13.3663 189.118 13.2259 185.175C13.2279 184.775 13.3853 184.392 13.6647 184.107C13.9463 183.828 14.3258 183.67 14.722 183.668C18.2122 183.785 21.6724 184.355 25.0157 185.364C25.3606 181.894 26.1518 178.483 27.3697 175.216C27.4449 175.032 27.556 174.865 27.6964 174.725C27.8369 174.584 28.0038 174.473 28.1876 174.398C28.5554 174.249 28.9669 174.249 29.3347 174.398C32.5106 175.851 35.4872 177.706 38.1921 179.916C39.8398 176.839 41.8782 173.988 44.2566 171.434C44.5441 171.16 44.9263 171.006 45.3238 171.006C45.7213 171.006 46.1035 171.16 46.3911 171.434C48.7691 173.988 50.8074 176.839 52.4556 179.916C55.1593 177.709 58.1323 175.855 61.303 174.398C61.6741 174.248 62.0889 174.248 62.46 174.398C62.8294 174.553 63.1232 174.846 63.2779 175.216C64.4904 178.492 65.2814 181.909 65.6319 185.384C68.9747 184.37 72.4347 183.793 75.9256 183.668C76.3237 183.676 76.7043 183.833 76.9929 184.107C77.1317 184.248 77.2411 184.414 77.3148 184.598C77.3884 184.781 77.4248 184.977 77.4218 185.175C77.3085 188.768 76.7113 192.329 75.6463 195.762C82.8016 188.061 86.7785 177.937 86.7779 167.423ZM68.3949 214.961C76.5839 211.568 81.5114 203.396 83.227 200.073C81.2154 199.442 79.1577 198.968 77.0727 198.656C75.7326 200.007 74.3101 201.273 72.8136 202.448C71.6312 204.593 70.1576 206.564 68.4348 208.305C63.8066 212.935 57.8019 215.181 53.064 216.288C57.4229 216.967 63.1383 217.136 68.3949 214.961ZM70.4396 200.512C72.6017 196.219 73.9222 191.551 74.3297 186.761C71.0777 187.03 67.8714 187.7 64.7841 188.757C61.0862 189.988 57.7116 192.034 54.9093 194.744C50.6801 198.975 48.6553 204.673 47.6878 209.064C47.4484 210.181 47.2689 211.199 47.1492 212.057C47.0295 212.915 46.9497 213.564 46.8998 214.123C50.351 213.824 58.6398 212.576 64.8539 207.477C65.3726 207.048 65.8514 206.599 66.3601 206.12C67.987 204.461 69.3616 202.571 70.4396 200.512ZM62.7094 186.382C62.4569 183.488 61.8882 180.63 61.0137 177.86C58.442 179.2 56.0238 180.816 53.8022 182.68C54.8331 185.005 55.5735 187.448 56.0065 189.954C58.086 188.493 60.3372 187.294 62.7094 186.382ZM52.7947 192.649L53.2835 192.2C52.5553 184.157 47.5481 177.381 45.3039 174.727C43.2032 177.233 41.4178 179.988 39.9875 182.93C38.561 185.834 37.6626 188.97 37.3342 192.19L37.823 192.649C41.4253 196.446 44 201.1 45.3039 206.17C46.6065 201.097 49.1852 196.442 52.7947 192.649ZM43.7179 214.193C43.7179 213.634 43.5982 212.935 43.4785 212.147C43.3589 211.359 43.1793 210.241 42.9399 209.154C41.9425 204.753 39.9476 199.035 35.7184 194.784C29.4644 188.528 20.0285 187.091 16.298 186.801C16.719 191.894 18.1895 196.844 20.617 201.34C21.6287 203.124 22.8694 204.768 24.3075 206.23C25.0621 206.978 25.8688 207.671 26.7214 208.305C32.7759 212.766 40.4463 213.913 43.7179 214.193ZM34.6112 189.945C35.0477 187.444 35.7914 185.008 36.8255 182.69C34.6032 180.819 32.1814 179.2 29.604 177.86C28.7416 180.626 28.1797 183.476 27.9283 186.362C30.2944 187.278 32.5389 188.481 34.6112 189.945ZM22.2328 214.961C27.5094 217.146 33.2048 216.957 37.5736 216.268C32.8457 215.181 26.8211 212.935 22.183 208.285C20.7052 206.784 19.4156 205.109 18.3428 203.296C16.4628 201.9 14.6952 200.359 13.0563 198.686C11.141 198.993 9.2507 199.439 7.40075 200.023C9.12634 203.396 14.0637 211.548 22.2328 214.961Z" fill="#B29169"/>
<path d="M74.3301 186.762C73.9226 191.552 72.6022 196.219 70.4401 200.512C69.3556 202.599 67.9673 204.512 66.3206 206.19C65.8418 206.669 65.3232 207.118 64.8145 207.547C58.6403 212.646 50.3514 213.894 46.8604 214.193C46.8604 213.634 46.99 212.926 47.1097 212.128C47.2294 211.329 47.409 210.212 47.6483 209.134C48.6458 204.743 50.6407 199.045 54.8699 194.815C57.6722 192.105 61.0467 190.059 64.7446 188.827C67.8417 187.743 71.0617 187.05 74.3301 186.762Z" fill="#D2ACB6"/>
<path d="M61.0133 177.86C61.8878 180.63 62.4565 183.488 62.709 186.382C60.3368 187.294 58.0856 188.493 56.0061 189.955C55.5731 187.448 54.8327 185.005 53.8018 182.68C56.0234 180.816 58.4416 179.2 61.0133 177.86Z" fill="#B57C8D"/>
<path d="M53.283 192.199L52.7943 192.648C49.1884 196.443 46.6131 201.098 45.3134 206.169C44.0095 201.099 41.4348 196.446 37.8325 192.648L37.3438 192.189C37.6721 188.97 38.5705 185.834 39.997 182.929C41.4273 179.988 43.2127 177.233 45.3134 174.727C47.5477 177.381 52.5549 184.156 53.283 192.199Z" fill="#D2ACB6"/>
<path d="M43.4785 212.147C43.5982 212.936 43.668 213.634 43.7179 214.193C40.4463 213.914 32.746 212.766 26.7613 208.266C25.9087 207.632 25.102 206.938 24.3474 206.19C22.9093 204.728 21.6686 203.085 20.6569 201.301C18.2294 196.805 16.7588 191.854 16.3379 186.762C20.0684 187.081 29.5042 188.518 35.7583 194.745C40.0074 198.996 42.0223 204.723 42.9798 209.114C43.1793 210.242 43.3588 211.259 43.4785 212.147Z" fill="#D2ACB6"/>
<path d="M36.826 182.69C35.7918 185.008 35.0481 187.444 34.6116 189.945C32.5393 188.481 30.2948 187.278 27.9287 186.362C28.1834 183.476 28.7486 180.625 29.6144 177.86C32.1883 179.2 34.6068 180.82 36.826 182.69Z" fill="#B57C8D"/>
<path d="M28.9257 39.566C28.9148 38.4934 29.1254 37.4301 29.5442 36.4427C29.9429 35.4935 30.5338 34.6373 31.2797 33.928C32.0323 33.1835 32.9282 32.5996 33.913 32.2117C35.0187 31.78 36.1974 31.5666 37.3841 31.583C38.5033 31.5778 39.6133 31.7843 40.6558 32.1917C41.627 32.5586 42.5134 33.1193 43.261 33.8399C44.0087 34.5604 44.6019 35.4256 45.0047 36.3828C45.4332 37.3889 45.6504 38.4724 45.643 39.566C45.66 40.6103 45.4575 41.6464 45.0485 42.6074C44.6396 43.5683 44.0333 44.4326 43.2691 45.1441C42.5068 45.8369 41.62 46.3787 40.6558 46.7407C39.6089 47.1288 38.5006 47.3248 37.3841 47.3194C36.2021 47.3321 35.027 47.1362 33.913 46.7407C32.9322 46.3883 32.0306 45.8457 31.2598 45.1441C30.5233 44.4621 29.9387 43.6325 29.5442 42.7093C29.1196 41.7166 28.9088 40.6456 28.9257 39.566ZM31.559 39.566C31.5483 40.3464 31.6977 41.1207 31.9979 41.8411C32.2733 42.5107 32.6804 43.1181 33.1948 43.6273C33.7135 44.1468 34.3307 44.5573 35.0102 44.8347C36.4905 45.4205 38.1382 45.4205 39.6184 44.8347C40.2879 44.5496 40.8972 44.1399 41.4138 43.6273C41.9301 43.112 42.3313 42.493 42.5908 41.8112C42.8588 41.0828 42.994 40.3122 42.9898 39.5361C42.9976 38.7206 42.8625 37.91 42.5908 37.1412C42.3366 36.4496 41.9427 35.8178 41.4338 35.2851C40.9224 34.7662 40.3118 34.3555 39.6384 34.0777C38.1507 33.532 36.5178 33.532 35.0301 34.0777C34.3468 34.3478 33.7282 34.7593 33.2148 35.2851C32.6968 35.8183 32.2899 36.4492 32.0178 37.1412C31.7139 37.9024 31.5647 38.7165 31.579 39.5361L31.559 39.566ZM39.8179 53.8555C39.7943 53.7873 39.7843 53.7152 39.7886 53.6432C39.7929 53.5712 39.8113 53.5008 39.8428 53.4359C39.8743 53.371 39.9182 53.313 39.9722 53.2651C40.0261 53.2173 40.0889 53.1805 40.157 53.157C40.4864 53.0003 40.8506 52.9316 41.2143 52.9574C41.6054 52.9655 41.9887 53.0682 42.3315 53.2567C42.4847 53.3241 42.6152 53.4344 42.7073 53.5742C42.7993 53.7141 42.8489 53.8776 42.8502 54.0451C42.8502 54.3943 42.8502 54.8334 42.8502 55.3722C42.8502 55.9111 42.8502 56.4599 42.8502 57.0387C42.8502 57.6174 42.8502 58.2062 42.8502 58.765V60.172C42.8147 60.6145 42.9424 61.0546 43.2092 61.4093C43.4038 61.5654 43.6275 61.6811 43.8673 61.7496C44.107 61.8182 44.3581 61.8382 44.6057 61.8085H48.2164H52.0267L55.5577 61.7486L58.2907 61.6688C58.4306 61.6704 58.5687 61.7014 58.6958 61.7598C58.823 61.8183 58.9365 61.9029 59.0288 62.008C59.2437 62.2177 59.4016 62.4787 59.4876 62.7664C59.5784 63.0145 59.5784 63.2867 59.4876 63.5348C59.4279 63.6599 59.3301 63.763 59.2083 63.8293C59.0865 63.8956 58.9469 63.9218 58.8094 63.904H44.5458C43.3684 64.0091 42.1909 63.7023 41.2143 63.0359C40.8481 62.6652 40.5687 62.2178 40.3962 61.726C40.2237 61.2342 40.1625 60.7103 40.2169 60.1919V58.9745C40.2169 58.5155 40.2169 58.0665 40.2169 57.6174C40.2169 57.1684 40.2169 56.7293 40.2169 56.3202C40.2169 55.9111 40.2169 55.5319 40.157 55.2225C40.0972 54.9132 40.0972 54.6238 40.0573 54.3843C40.0031 54.1912 39.9295 54.004 39.8379 53.8255L39.8179 53.8555ZM55.2983 51.9795C55.2983 51.1213 55.2984 50.0536 55.3582 48.7663C55.418 47.4791 55.3582 46.0621 55.3582 44.5553C54.3607 44.8148 53.2636 45.0642 52.0467 45.3137C50.9142 45.5377 49.7678 45.6844 48.6154 45.7528C48.4643 45.7722 48.3107 45.751 48.1704 45.6914C48.0302 45.6318 47.9084 45.5359 47.8175 45.4135C47.6306 45.1657 47.526 44.8656 47.5182 44.5553C47.4942 44.2515 47.5564 43.9471 47.6978 43.6772C47.7565 43.5493 47.853 43.4425 47.9743 43.3711C48.0955 43.2997 48.2358 43.2673 48.376 43.2781C49.7027 43.2781 50.9894 43.1982 52.2262 43.1284C53.463 43.0585 54.5203 42.9687 55.3981 42.839C55.3981 41.9609 55.3981 41.0828 55.3981 40.2246C55.3981 39.3664 55.3981 38.4983 55.3981 37.6401C54.251 37.6401 53.0641 37.71 51.8472 37.7698C50.7789 37.8037 49.7133 37.897 48.6553 38.0492C48.4908 38.0845 48.3197 38.0733 48.1612 38.0169C48.0027 37.9605 47.863 37.8611 47.7576 37.7299C47.5621 37.4778 47.4505 37.1707 47.4384 36.8518C47.4181 36.5343 47.5022 36.2189 47.6778 35.9537C47.7677 35.8131 47.897 35.7021 48.0496 35.6347C48.2021 35.5672 48.3712 35.5463 48.5356 35.5745C49.5397 35.6277 50.6569 35.6677 51.8871 35.6943L55.3981 35.7741C55.3981 34.6465 55.3981 33.6287 55.3981 32.7206C55.3981 31.8126 55.3981 31.0642 55.3382 30.5053C55.2784 29.5973 55.2385 28.8888 55.1986 28.3899C55.1743 27.9467 55.0731 27.5111 54.8994 27.1026C54.8571 27.0339 54.8302 26.9569 54.8205 26.8769C54.8108 26.7968 54.8185 26.7156 54.8431 26.6388C54.8678 26.562 54.9087 26.4914 54.9632 26.432C55.0177 26.3725 55.0844 26.3256 55.1587 26.2943C55.5157 26.0873 55.9232 25.9836 56.3357 25.995C56.7705 25.99 57.2007 26.0856 57.5925 26.2744C57.7593 26.3362 57.9018 26.4502 57.9988 26.5993C58.0958 26.7485 58.1422 26.925 58.1311 27.1026C58.0513 27.9308 57.9915 29.0085 57.9715 30.3457C57.9516 31.6828 57.9715 33.1198 57.9117 34.6964C57.8518 36.273 57.9117 37.8996 57.9117 39.5959C57.9117 41.2923 57.9117 42.9388 57.9117 44.5154C57.9117 46.0921 57.9117 47.509 57.9117 48.8462C57.9117 50.1833 57.9117 51.2011 57.9715 51.9795C57.9802 52.1549 57.9467 52.3298 57.8738 52.4895C57.8009 52.6493 57.6907 52.7892 57.5526 52.8975C57.2763 53.1048 56.9403 53.2168 56.595 53.2168C56.2497 53.2168 55.9137 53.1048 55.6375 52.8975C55.513 52.7761 55.4192 52.6268 55.3637 52.462C55.3082 52.2972 55.2926 52.1215 55.3183 51.9495L55.2983 51.9795Z" fill="#4F381D"/>
<path d="M26.6715 101.992C28.5341 102.182 30.4051 102.275 32.2772 102.272C34.1724 102.272 36.0476 102.212 37.8829 102.072V97.7913C36.4098 97.584 35.0516 96.8799 34.0327 95.7956C33.0488 94.732 32.5253 93.3223 32.5764 91.874C32.564 91.039 32.7342 90.2114 33.0752 89.4491C33.3944 88.7324 33.8638 88.0927 34.4517 87.5732C35.063 87.0334 35.7748 86.6197 36.5463 86.3558C37.397 86.0494 38.2955 85.8973 39.1995 85.9067C40.084 85.8989 40.9625 86.051 41.7929 86.3558C42.5643 86.6199 43.2761 87.0336 43.8875 87.5732C44.4838 88.1176 44.9575 88.7825 45.2774 89.524C45.5972 90.2655 45.7559 91.0665 45.7428 91.874C45.8001 93.3423 45.281 94.7749 44.2965 95.8654C43.2981 96.9271 41.9616 97.608 40.5162 97.7913V101.873C42.3714 101.693 44.0771 101.454 45.6231 101.174C46.9013 100.958 48.1666 100.671 49.4134 100.316C49.6905 100.215 49.9941 100.215 50.2712 100.316C50.4637 100.397 50.6197 100.547 50.7101 100.735C50.7393 100.831 50.749 100.931 50.7387 101.03C50.7284 101.13 50.6983 101.226 50.6503 101.314C50.587 101.429 50.5016 101.531 50.3988 101.613C50.2961 101.695 50.1782 101.756 50.0518 101.793C48.5387 102.314 46.9925 102.734 45.4236 103.05C43.688 103.409 41.8328 103.709 39.8379 103.928C37.843 104.148 35.7783 104.327 33.6537 104.447C31.5291 104.567 29.4045 104.637 27.3099 104.637C27.1222 104.644 26.9354 104.609 26.7629 104.534C26.5904 104.46 26.4365 104.349 26.3125 104.208C26.0573 103.948 25.8779 103.624 25.7938 103.27C25.7065 102.971 25.735 102.65 25.8736 102.372C25.9514 102.234 26.0698 102.124 26.2126 102.056C26.3554 101.988 26.5157 101.966 26.6715 101.992ZM30.5416 81.8254C31.6787 81.8853 32.9854 81.9252 34.4517 81.9452C35.9179 81.9651 37.444 81.9452 38.9601 81.9452C40.4763 81.9452 42.0123 81.9452 43.5085 81.9452C45.0047 81.9452 46.3413 81.8853 47.4983 81.8055C47.6433 81.7902 47.7898 81.8136 47.9229 81.8731C48.0561 81.9327 48.1711 82.0264 48.2564 82.1448C48.4324 82.3812 48.5425 82.6601 48.5756 82.953C48.5982 83.2288 48.5429 83.5054 48.416 83.7513C48.3441 83.8751 48.2382 83.9757 48.1109 84.0412C47.9837 84.1066 47.8403 84.1342 47.6978 84.1205L43.708 84.0207C42.2318 84.0207 40.7156 83.9609 39.2195 83.9409C37.7233 83.921 36.2271 83.9409 34.7708 83.9409C33.3146 83.9409 32.0179 84.0207 30.8808 84.1006C30.7411 84.1217 30.5984 84.1072 30.4659 84.0583C30.3333 84.0095 30.2153 83.9279 30.1227 83.8212C29.9311 83.5898 29.8069 83.3102 29.7636 83.0129C29.7223 82.7408 29.764 82.4626 29.8833 82.2146C29.9401 82.0902 30.0336 81.9861 30.1514 81.9165C30.2691 81.8469 30.4053 81.8151 30.5416 81.8254ZM35.0501 91.8041C35.0279 92.3231 35.12 92.8406 35.3199 93.32C35.5199 93.7994 35.8228 94.2289 36.2072 94.5782C37.0301 95.3051 38.1028 95.6843 39.1995 95.6359C40.272 95.6825 41.3192 95.3021 42.1121 94.5782C42.4834 94.2209 42.775 93.7889 42.9675 93.3108C43.16 92.8327 43.2492 92.3192 43.2292 91.8041C43.2465 91.2864 43.1561 90.7708 42.9638 90.2898C42.7715 89.8089 42.4815 89.3731 42.1121 89.0101C41.7233 88.6448 41.2652 88.3612 40.7649 88.1761C40.2646 87.991 39.7324 87.9081 39.1995 87.9324C38.0996 87.8863 37.0254 88.2732 36.2072 89.0101C35.8184 89.3708 35.5134 89.8124 35.3135 90.3037C35.1136 90.795 35.0237 91.3242 35.0501 91.854V91.8041ZM36.4865 78.273C36.3221 78.2522 36.1672 78.1848 36.0399 78.0787C35.9126 77.9726 35.8184 77.8323 35.7683 77.6743C35.6625 77.3576 35.6554 77.0162 35.7481 76.6954C35.8407 76.3746 36.0286 76.0896 36.287 75.8781C36.4278 75.7717 36.5943 75.7045 36.7695 75.6835C36.9448 75.6624 37.1224 75.6883 37.2844 75.7584L44.0671 77.9138C44.183 77.9442 44.2911 77.9991 44.384 78.0748C44.4769 78.1506 44.5525 78.2454 44.6057 78.3529C44.6954 78.5533 44.7164 78.7778 44.6655 78.9915C44.6146 79.1979 44.495 79.3809 44.3264 79.5104C44.2335 79.5801 44.1257 79.6272 44.0114 79.648C43.8971 79.6688 43.7796 79.6627 43.6681 79.6301L36.4865 78.273ZM52.4457 110.205C52.4457 109.496 52.5055 108.409 52.5454 106.962C52.5853 105.515 52.6152 103.828 52.6452 101.972C52.6751 100.116 52.6452 98.0408 52.725 95.8654C52.8048 93.6901 52.725 91.5547 52.7848 89.4192C52.8446 87.2838 52.7848 85.2681 52.7848 83.3322C52.7848 81.3964 52.715 79.7399 52.6651 78.3429C52.6651 77.4448 52.5853 76.7363 52.5255 76.2274C52.4738 75.7877 52.3596 75.3576 52.1863 74.9501C52.1506 74.8774 52.1305 74.7979 52.1275 74.7169C52.1244 74.6359 52.1383 74.5552 52.1684 74.4799C52.1985 74.4047 52.2441 74.3366 52.3021 74.2801C52.3602 74.2235 52.4295 74.1799 52.5055 74.1518C52.8754 73.9614 53.2866 73.8654 53.7025 73.8724C54.1349 73.8706 54.5629 73.959 54.9592 74.1319C55.1262 74.1905 55.2693 74.3022 55.3666 74.45C55.4639 74.5979 55.51 74.7736 55.4979 74.9501C55.438 75.5688 55.3981 76.4769 55.3782 77.6843C55.3582 78.8917 55.3782 80.2987 55.3183 81.8753C55.2585 83.452 55.3183 85.1783 55.3183 87.0243C55.3183 88.8704 55.3183 90.7564 55.3183 92.6723L61.7419 92.5525C61.9089 92.5289 62.0792 92.5518 62.234 92.6187C62.3889 92.6856 62.5223 92.7939 62.6197 92.9317C62.7982 93.2039 62.8887 93.5244 62.879 93.8498C62.8616 94.1831 62.7433 94.5032 62.5399 94.7678C62.4353 94.9061 62.2933 95.0116 62.1306 95.0717C61.968 95.1318 61.7916 95.1441 61.6222 95.1071C60.7644 95.0073 59.7869 94.9175 58.6299 94.8476L55.3183 94.668C55.3183 96.4043 55.3183 98.0807 55.3183 99.7172C55.3183 101.354 55.3183 102.87 55.3183 104.248C55.3183 105.625 55.3183 106.852 55.3183 107.9C55.3183 108.947 55.3183 109.746 55.3183 110.275C55.326 110.454 55.2879 110.632 55.2077 110.793C55.1274 110.954 55.0076 111.091 54.8595 111.193C54.5684 111.402 54.2203 111.517 53.862 111.522C53.5033 111.519 53.1545 111.404 52.8646 111.193C52.7299 111.088 52.6244 110.95 52.558 110.793C52.4916 110.636 52.4667 110.464 52.4856 110.295L52.4457 110.205Z" fill="#4F381D"/>
<path d="M28.8261 130.651C29.9632 130.711 31.3397 130.751 32.9356 130.771C34.5316 130.791 36.1774 130.771 37.9229 130.831C39.6684 130.891 41.2743 130.831 42.9101 130.831C44.546 130.831 45.9025 130.751 47.1194 130.671C47.2656 130.655 47.4134 130.679 47.547 130.74C47.6806 130.802 47.7948 130.899 47.8775 131.02C48.0575 131.27 48.1677 131.562 48.1966 131.869C48.2214 132.166 48.159 132.464 48.0171 132.727C47.949 132.85 47.847 132.951 47.7233 133.018C47.5996 133.086 47.4593 133.116 47.3189 133.106L43.1296 133.016C41.5337 133.016 39.8978 132.946 38.2221 132.946C36.5464 132.946 34.9106 132.946 33.3346 132.946C31.7586 132.946 30.4021 132.946 29.285 133.076C29.1368 133.095 28.9862 133.073 28.8492 133.014C28.7122 132.954 28.594 132.858 28.507 132.737C28.3073 132.489 28.1765 132.193 28.1279 131.879C28.0683 131.593 28.1033 131.295 28.2277 131.03C28.2809 130.917 28.3655 130.821 28.4716 130.753C28.5776 130.686 28.7006 130.651 28.8261 130.651ZM32.0978 141.189C32.0864 140.351 32.2566 139.52 32.5965 138.754C32.9198 138.022 33.3881 137.364 33.973 136.818C34.5805 136.256 35.2921 135.819 36.0676 135.531C36.9119 135.197 37.8131 135.031 38.7209 135.042C39.6091 135.032 40.4904 135.198 41.3142 135.531C42.0802 135.826 42.7839 136.263 43.3889 136.818C43.9677 137.369 44.435 138.026 44.7654 138.754C45.2714 139.891 45.4107 141.157 45.164 142.377C44.9173 143.596 44.2968 144.709 43.3889 145.559C42.7885 146.118 42.0834 146.552 41.3142 146.837C40.4857 147.149 39.6063 147.305 38.7209 147.296C37.8158 147.307 36.9164 147.151 36.0676 146.837C35.2888 146.56 34.5756 146.125 33.973 145.559C33.3837 145.018 32.9148 144.358 32.5965 143.623C32.2557 142.858 32.0855 142.027 32.0978 141.189ZM35.5689 126.73C35.3799 126.718 35.1973 126.656 35.0397 126.551C34.8821 126.446 34.755 126.301 34.6712 126.131C34.5914 125.978 34.5432 125.812 34.5295 125.64C34.5158 125.469 34.5369 125.296 34.5914 125.133C34.6854 124.813 34.8816 124.533 35.15 124.335C35.2933 124.234 35.4595 124.17 35.6336 124.149C35.8077 124.128 35.9843 124.151 36.1474 124.215L43.369 126.57C43.4709 126.597 43.5653 126.647 43.6448 126.716C43.7244 126.785 43.787 126.872 43.8278 126.969C43.883 127.155 43.883 127.352 43.8278 127.538C43.7692 127.717 43.6662 127.878 43.5286 128.007C43.4518 128.077 43.3575 128.125 43.2557 128.146C43.1539 128.167 43.0483 128.16 42.95 128.127L35.5689 126.73ZM34.5715 141.139C34.5484 141.676 34.6436 142.212 34.8504 142.709C35.0573 143.206 35.3706 143.651 35.7684 144.013C36.5883 144.747 37.6613 145.133 38.7608 145.09C39.8152 145.114 40.8376 144.727 41.6135 144.013C42.0044 143.646 42.3119 143.2 42.515 142.704C42.7181 142.208 42.812 141.674 42.7905 141.139C42.7963 140.601 42.6932 140.067 42.4875 139.57C42.2818 139.072 41.9777 138.622 41.5935 138.245C41.2272 137.892 40.7928 137.617 40.3168 137.437C39.8212 137.242 39.2931 137.144 38.7608 137.147C37.6621 137.11 36.5909 137.495 35.7684 138.225C35.3673 138.595 35.0522 139.049 34.8454 139.554C34.6386 140.059 34.5451 140.604 34.5715 141.149V141.139ZM40.237 150.798C40.192 150.66 40.2022 150.511 40.2655 150.38C40.3287 150.25 40.4401 150.149 40.5761 150.1C40.9078 149.951 41.2708 149.886 41.6334 149.91C42.023 149.92 42.4053 150.019 42.7506 150.199C42.9038 150.27 43.034 150.382 43.1259 150.523C43.2177 150.665 43.2674 150.829 43.2692 150.998C43.2692 151.696 43.2194 152.495 43.2094 153.413C43.1994 154.331 43.2094 155.179 43.2094 155.947C43.1701 156.39 43.2982 156.832 43.5685 157.185C43.7618 157.343 43.9854 157.46 44.2255 157.528C44.4657 157.597 44.7172 157.616 44.9649 157.584H48.5158C49.7626 157.584 50.9895 157.584 52.1864 157.584H55.5778L58.2509 157.504C58.5309 157.511 58.7963 157.63 58.9891 157.833C59.2019 158.044 59.3595 158.305 59.4479 158.591C59.5385 158.843 59.5385 159.118 59.4479 159.37C59.3854 159.492 59.2868 159.592 59.1654 159.657C59.0441 159.721 58.9059 159.746 58.7696 159.729H44.945C43.7687 159.836 42.5917 159.533 41.6135 158.871C41.2465 158.499 40.9666 158.05 40.7941 157.556C40.6216 157.063 40.5608 156.537 40.616 156.017C40.616 155.299 40.616 154.65 40.616 154.021C40.616 153.393 40.616 152.844 40.5163 152.225C40.5163 151.906 40.4564 151.626 40.4165 151.387C40.375 151.189 40.3149 150.995 40.237 150.808V150.798ZM54.7599 147.326C54.8131 146.507 54.853 145.47 54.8796 144.212C54.8796 142.965 54.8796 141.618 54.9594 140.221C53.8622 140.281 52.755 140.321 51.6279 140.36C50.5007 140.4 49.4734 140.48 48.5757 140.59C48.4063 140.626 48.2303 140.613 48.0679 140.553C47.9055 140.493 47.7634 140.388 47.658 140.251C47.4465 139.993 47.3209 139.675 47.2989 139.343C47.2639 139.027 47.3416 138.709 47.5184 138.445C47.61 138.306 47.7396 138.196 47.8917 138.129C48.0437 138.062 48.2119 138.04 48.3762 138.065C49.3736 138.125 50.4708 138.145 51.6478 138.145H54.9993V131.28C54.9993 130.282 54.9993 129.284 54.9993 128.426C54.9993 127.568 54.9394 126.869 54.9195 126.33C54.8596 125.432 54.8097 124.724 54.7599 124.215C54.7163 123.78 54.6226 123.351 54.4806 122.938C54.4378 122.866 54.4106 122.786 54.4006 122.703C54.3906 122.62 54.398 122.536 54.4224 122.456C54.4468 122.376 54.4877 122.302 54.5424 122.239C54.5971 122.176 54.6644 122.125 54.7399 122.089C55.0725 121.871 55.4594 121.75 55.8571 121.74C56.2913 121.741 56.7201 121.836 57.1138 122.02C57.2846 122.091 57.4287 122.214 57.5254 122.371C57.6221 122.529 57.6666 122.713 57.6525 122.898C57.5727 123.756 57.5128 124.834 57.4929 126.131C57.4729 127.428 57.4929 128.865 57.433 130.422C57.3732 131.978 57.433 133.595 57.433 135.251C57.433 136.908 57.433 138.514 57.433 140.021C57.433 141.528 57.433 142.945 57.4929 144.232C57.5527 145.519 57.5428 146.557 57.5727 147.326C57.5817 147.503 57.5462 147.68 57.4696 147.84C57.393 148.001 57.2775 148.139 57.1338 148.244C56.8467 148.459 56.4953 148.572 56.1363 148.563C55.7781 148.567 55.4281 148.455 55.1389 148.244C55.0027 148.138 54.8961 147.999 54.8297 147.84C54.7633 147.68 54.7392 147.507 54.7599 147.336V147.326Z" fill="#4F381D"/>
</g>
<defs>
<clipPath id="clip0_37_341">
<rect width="90" height="220" fill="white"/>
</clipPath>
</defs>
</svg>
