<svg width="169" height="80" viewBox="0 0 169 80" fill="none" xmlns="http://www.w3.org/2000/svg">
<g clip-path="url(#clip0_37_317)">
<path d="M167.853 52.3453C168.112 52.3453 168.361 52.4485 168.544 52.6322C168.728 52.8158 168.831 53.0649 168.831 53.3246C168.831 70.7099 147.827 70.7099 133.929 70.7099C133.67 70.7099 133.421 70.6068 133.238 70.4231C133.054 70.2395 132.951 69.9904 132.951 69.7307C132.951 69.471 133.054 69.2219 133.238 69.0382C133.421 68.8546 133.67 68.7514 133.929 68.7514C150.878 68.7514 166.158 67.622 166.849 54.2843C158.548 54.0104 150.693 50.454 145.004 44.3936C140.878 39.889 138.714 34.6401 138.838 29.5022H113.636C111.119 32.9142 107.761 35.6137 103.89 37.3364C101.143 38.4398 98.2059 38.9899 95.2464 38.9554C91.5809 38.9255 87.9468 38.2766 84.4969 37.036C81.0465 38.2749 77.4126 38.9238 73.7473 38.9554C70.7857 38.99 67.8462 38.4398 65.0969 37.3364C60.8206 35.5606 57.5938 32.4073 55.3187 29.5022H32.0922C30.5342 41.1816 18.2528 53.7816 2.13828 54.2843C2.8358 67.622 18.0963 68.7514 35.0582 68.7514C35.3176 68.7514 35.5663 68.8546 35.7497 69.0382C35.933 69.2219 36.0361 69.471 36.0361 69.7307C36.0361 69.9904 35.933 70.2395 35.7497 70.4231C35.5663 70.6068 35.3176 70.7099 35.0582 70.7099C21.1602 70.7099 0.163086 70.7099 0.163086 53.3246C0.163086 53.0649 0.266106 52.8158 0.449483 52.6322C0.63286 52.4485 0.881572 52.3453 1.14091 52.3453C17.0729 52.3453 29.263 39.7519 30.2408 28.4511C30.2619 28.2069 30.3731 27.9792 30.5527 27.8127C30.7323 27.6461 30.9674 27.5525 31.2122 27.5502H53.9497C52.9851 26.1193 52.1454 24.6078 51.44 23.0325C51.3902 22.9125 51.3645 22.7838 51.3645 22.6538C51.3645 22.5238 51.3902 22.3951 51.44 22.2751C51.5411 22.0334 51.7331 21.8411 51.9745 21.7398C54.0459 20.9671 56.191 20.4092 58.376 20.0751C58.6025 20.0401 58.834 20.0865 59.0296 20.2059C59.2252 20.3254 59.3724 20.5103 59.4451 20.7279C59.4664 20.7849 59.4817 20.844 59.4907 20.9042C59.5281 21.1603 59.4627 21.4209 59.3087 21.6289C59.1548 21.8368 58.9249 21.9753 58.6694 22.014C56.9801 22.2787 55.3147 22.6782 53.689 23.2087C54.4628 24.7236 55.3543 26.1752 56.3552 27.5502C56.8245 28.203 57.3395 28.8559 57.9132 29.5087C60.0496 32.1078 62.7645 34.1693 65.84 35.528C70.6053 37.4865 75.8073 37.1144 79.4383 36.3897C75.527 35.6324 70.1229 33.8763 66.0552 29.8025L65.7749 29.5087C65.1842 28.8915 64.6334 28.2373 64.1256 27.5502C62.5415 25.3661 61.3177 22.9414 60.5011 20.3688C59.5443 17.4567 59.0044 14.4234 58.8975 11.3595C58.8974 11.0979 59.0005 10.8469 59.1843 10.661C59.2749 10.568 59.3835 10.4946 59.5035 10.4452C59.6234 10.3958 59.7522 10.3715 59.8819 10.3737C62.758 10.4718 65.6081 10.9549 68.3563 11.81C68.6186 8.9384 69.2631 6.11483 70.2728 3.41437C70.3206 3.2943 70.392 3.18506 70.4827 3.09311C70.5734 3.00115 70.6816 2.92836 70.8008 2.87903C71.0434 2.78101 71.3145 2.78101 71.557 2.87903C74.1714 4.07675 76.6173 5.61321 78.832 7.44897C80.1724 4.90496 81.8426 2.54955 83.7993 0.443909C83.9862 0.264744 84.2349 0.164734 84.4936 0.164734C84.7523 0.164734 85.001 0.264744 85.1879 0.443909C87.1547 2.54662 88.8299 4.90501 90.1682 7.4555C92.3798 5.61862 94.8237 4.08205 97.4367 2.88556C97.6771 2.78793 97.946 2.78793 98.1863 2.88556C98.3065 2.9348 98.4156 3.00749 98.5074 3.0994C98.5991 3.19131 98.6717 3.3006 98.7209 3.4209C99.7277 6.11961 100.37 8.94093 100.631 11.81C103.379 10.954 106.229 10.4688 109.105 10.3672C109.235 10.3663 109.363 10.3912 109.483 10.4405C109.603 10.4897 109.712 10.5623 109.803 10.654C109.895 10.7457 109.967 10.8547 110.017 10.9747C110.066 11.0947 110.091 11.2233 110.09 11.353C109.986 14.4359 109.439 17.4878 108.466 20.4145C107.652 22.9722 106.435 25.3833 104.862 27.5567C104.356 28.2454 103.805 28.8997 103.212 29.5152L102.939 29.809C98.8708 33.8828 93.4667 35.639 89.562 36.3963C93.1995 37.1144 98.395 37.5061 103.147 35.5345C106.225 34.1732 108.942 32.1096 111.081 29.5087C111.648 28.8559 112.169 28.203 112.632 27.5502C113.635 26.175 114.528 24.7234 115.305 23.2087C113.603 22.6542 111.859 22.2415 110.09 21.9748C109.834 21.9422 109.602 21.8101 109.444 21.6072C109.285 21.4044 109.213 21.1471 109.242 20.8911C109.251 20.8309 109.267 20.7718 109.288 20.7148C109.36 20.4985 109.507 20.3145 109.701 20.1952C109.895 20.0758 110.125 20.0287 110.35 20.062C112.628 20.3864 114.864 20.9577 117.019 21.7659C117.14 21.8159 117.25 21.8895 117.343 21.9824C117.436 22.0752 117.509 22.1856 117.559 22.307C117.608 22.4285 117.633 22.5586 117.633 22.6898C117.632 22.8211 117.605 22.9508 117.554 23.0716C116.845 24.6464 116.003 26.1578 115.037 27.5893H139.874C140.009 27.5893 140.143 27.6178 140.267 27.6729C140.39 27.728 140.501 27.8086 140.591 27.9092C140.684 28.0083 140.754 28.1258 140.798 28.2541C140.842 28.3823 140.858 28.5185 140.845 28.6535C140.422 33.5759 142.41 38.7073 146.445 43.1206C149.199 46.0356 152.518 48.3571 156.199 49.9433C159.88 51.5294 163.846 52.3468 167.853 52.3453ZM102.345 27.5502C106.909 22.3274 107.867 15.0546 108.075 12.3714C105.349 12.5859 102.66 13.1497 100.077 14.0493C97.0712 15.0562 94.3292 16.7249 92.0522 18.9326C89.721 21.3784 87.9932 24.3362 87.0066 27.5697C86.785 28.2226 86.6024 28.8754 86.4395 29.5283C85.9859 31.3149 85.6806 33.136 85.5268 34.973C88.1343 34.7707 95.1551 33.824 100.338 29.5283C100.748 29.1888 101.159 28.8297 101.55 28.438C101.824 28.1377 102.091 27.8505 102.345 27.5502ZM98.7209 12.4694C98.5165 9.97486 98.0243 7.51245 97.2542 5.13136C95.0367 6.27213 92.9567 7.66302 91.0548 9.27694C91.9633 11.2869 92.597 13.4104 92.9387 15.59C94.7179 14.2952 96.6627 13.2456 98.7209 12.4694ZM90.6702 17.5289C90.8201 17.3788 90.9831 17.2352 91.1395 17.085C90.5659 10.315 86.2178 4.60255 84.4969 2.61136C82.7186 4.6936 81.2136 6.99507 80.0184 9.45974C78.8445 11.8549 78.1114 14.4424 77.8542 17.0981C78.0107 17.2482 78.1671 17.3918 78.317 17.5485C81.0279 20.3608 83.0107 23.7945 84.0927 27.5502C84.2557 28.0855 84.3991 28.6078 84.5294 29.117C84.6533 28.6078 84.8032 28.0855 84.9662 27.5502C86.024 23.7943 87.9821 20.3541 90.6702 17.5289ZM83.4408 34.9535C83.2932 33.1161 82.9901 31.2947 82.5347 29.5087C82.3717 28.8559 82.1827 28.203 81.961 27.5502C80.9736 24.3242 79.2482 21.3734 76.922 18.9326C71.707 13.7098 63.7279 12.6065 60.9053 12.4041C61.1074 15.0873 62.0917 22.3665 66.6353 27.5828C66.8896 27.8831 67.1503 28.1704 67.4306 28.4511C67.8142 28.8368 68.219 29.2008 68.6431 29.5413C73.8386 33.8175 80.8333 34.7576 83.4408 34.9535ZM76.0615 15.5835C76.4004 13.4074 77.0342 11.2879 77.9455 9.28347C76.0322 7.66394 73.9389 6.2707 71.707 5.13136C70.9431 7.50708 70.4532 9.96252 70.2468 12.4498C72.316 13.2298 74.2716 14.2837 76.0615 15.5835Z" fill="#A0774A"/>
<path d="M108.075 12.4041C107.866 15.0547 106.908 22.3339 102.345 27.5502C102.091 27.8505 101.823 28.1377 101.55 28.4185C101.158 28.8102 100.748 29.1693 100.337 29.5087C95.1546 33.8045 88.1469 34.7315 85.5264 34.9535C85.6802 33.1165 85.9854 31.2953 86.439 29.5087C86.602 28.8559 86.7845 28.203 87.0061 27.5502C87.9955 24.3236 89.7232 21.3728 92.0517 18.9326C94.3307 16.732 97.0726 15.0701 100.076 14.0689C102.661 13.1738 105.349 12.6143 108.075 12.4041Z" fill="#CA94A0"/>
<path d="M97.2541 5.13135C98.0242 7.51244 98.5164 9.97485 98.7208 12.4694C96.6626 13.2456 94.7178 14.2952 92.9386 15.59C92.5969 13.4104 91.9632 11.2869 91.0547 9.27693C92.9567 7.66301 95.0366 6.27212 97.2541 5.13135Z" fill="#A65D75"/>
<path d="M91.1398 17.085C90.9834 17.2352 90.8204 17.3788 90.6705 17.529C87.9706 20.3507 86.0012 23.7911 84.9339 27.5502C84.7709 28.0855 84.621 28.6078 84.4972 29.117C84.3668 28.6078 84.2234 28.0855 84.0604 27.5502C82.9908 23.7907 81.0191 20.3503 78.3173 17.529C78.1674 17.3723 78.0109 17.2287 77.8545 17.0785C78.1116 14.4228 78.8448 11.8353 80.0187 9.44018C81.2153 6.98236 82.7203 4.68755 84.4972 2.61139C86.2181 4.60258 90.5662 10.315 91.1398 17.085Z" fill="#CA94A0"/>
<path d="M82.5539 29.5087C83.0027 31.2953 83.2993 33.1167 83.4405 34.9535C80.8329 34.7576 73.8187 33.8175 68.6363 29.5087C68.2122 29.1682 67.8074 28.8042 67.4238 28.4185C67.1435 28.1377 66.8827 27.8505 66.6285 27.5502C62.0653 22.3274 61.1005 15.0547 60.8984 12.3715C63.7211 12.5869 71.674 13.6772 76.9151 18.8999C79.2463 21.3457 80.9741 24.3035 81.9607 27.5371C82.2019 28.2226 82.3909 28.8755 82.5539 29.5087Z" fill="#CA94A0"/>
<path d="M77.9451 9.28346C77.0339 11.2879 76.4001 13.4074 76.0612 15.5834C74.2793 14.2857 72.3326 13.2319 70.2725 12.4498C70.4704 9.96353 70.9516 7.50811 71.7066 5.13135C73.9385 6.27069 76.0318 7.66392 77.9451 9.28346Z" fill="#A65D75"/>
<path d="M38.3115 60.1207C38.3115 56.4974 41.082 53.5922 45.2215 53.5922C49.0676 53.5922 51.9684 56.3342 51.9684 60.1207C51.9684 63.9072 49.0676 66.4534 45.2215 66.4534C41.069 66.4534 38.3115 63.842 38.3115 60.1207ZM40.4627 60.1207C40.4492 60.7402 40.5616 61.356 40.7931 61.9306C41.0246 62.5052 41.3704 63.0266 41.8094 63.4632C42.2484 63.8998 42.7715 64.2425 43.3469 64.4703C43.9222 64.6982 44.5378 64.8064 45.1563 64.7886C45.7785 64.8134 46.3991 64.7074 46.9779 64.4774C47.5568 64.2474 48.0811 63.8985 48.5171 63.4532C48.9531 63.008 49.2912 62.4761 49.5095 61.892C49.7278 61.308 49.8215 60.6845 49.7846 60.062C49.7846 57.2221 47.9268 55.2635 45.1563 55.2635C44.5265 55.2447 43.8996 55.3567 43.3151 55.5925C42.7306 55.8283 42.2013 56.1827 41.7603 56.6335C41.3194 57.0843 40.9765 57.6216 40.7532 58.2117C40.5298 58.8018 40.4309 59.4317 40.4627 60.062V60.1207ZM47.2097 71.8067C47.3163 72.1792 47.3819 72.5624 47.4053 72.9492C47.4704 73.9611 47.503 75.8217 47.503 76.9969C47.503 79.1513 48.546 80.0326 51.0558 80.0326H62.6267C63.8 80.0326 63.1156 78.172 62.2355 78.2046C59.8562 78.3026 54.6737 78.3678 51.0558 78.3352C49.9476 78.3352 49.6217 77.9108 49.6217 77.0295C49.6217 75.7238 49.6216 73.1124 49.6868 72.0026C49.752 70.8927 46.9359 70.7622 47.2097 71.7741V71.8067ZM59.8562 70.2725C59.8562 71.5782 62.1378 71.5782 62.1052 70.2725C62.0074 66.4207 61.877 53.9513 62.2029 49.9363C62.3007 48.6959 59.0413 48.7546 59.5954 49.9363C59.8562 50.4912 59.8888 51.242 59.954 52.7109C59.954 53.6249 60.0191 55.1917 60.0191 57.0197C58.2265 56.9871 56.1079 56.9544 54.413 56.8565C53.1092 56.7912 53.2396 59.0435 54.5108 58.8803C56.3402 58.6785 58.1787 58.5695 60.0191 58.5539C60.0191 59.9249 60.0191 61.3611 60.0191 62.7974C58.1149 63.0215 56.1999 63.1414 54.2826 63.1565C53.2722 63.1565 53.37 65.2456 54.4782 65.1803C56.3404 65.024 58.1844 64.6962 59.9865 64.201C59.9214 66.5905 59.8888 68.8689 59.8562 70.2399V70.2725Z" fill="#311C0E"/>
<path d="M77.7176 72.0679V68.549C75.1101 68.1247 73.3826 66.2967 73.3826 63.7506C73.3826 60.8781 75.6642 58.8869 78.7932 58.8869C81.9222 58.8869 84.106 60.8454 84.106 63.7506C84.1219 64.9402 83.6924 66.0925 82.9021 66.9807C82.1118 67.8689 81.018 68.4284 79.8362 68.549V71.8786C82.2937 71.6656 84.7266 71.2286 87.1047 70.5729C88.2455 70.2464 88.604 71.4216 87.6262 71.7806C83.226 73.3475 75.9901 74.0982 69.0737 74.0982C67.8351 74.0982 67.281 71.8459 68.5848 71.9765C71.6218 72.25 74.6757 72.2806 77.7176 72.0679ZM85.6054 55.4921C86.6484 55.4268 86.9091 57.4506 85.7683 57.4506C81.8897 57.32 75.7229 57.1895 72.0071 57.4506C70.9967 57.5159 70.6447 55.4921 71.7138 55.4921C75.436 55.6161 81.6941 55.714 85.6054 55.4921ZM78.7932 66.8516C79.2183 66.871 79.6429 66.8039 80.0414 66.6543C80.4399 66.5048 80.8039 66.2759 81.1116 65.9815C81.4193 65.6871 81.6642 65.3333 81.8315 64.9414C81.9988 64.5496 82.085 64.1278 82.085 63.7016C82.085 63.2755 81.9988 62.8537 81.8315 62.4619C81.6642 62.07 81.4193 61.7162 81.1116 61.4218C80.8039 61.1274 80.4399 60.8985 80.0414 60.7489C79.6429 60.5994 79.2183 60.5323 78.7932 60.5516C76.805 60.5516 75.3969 61.8573 75.3969 63.718C75.3969 65.5786 76.805 66.8451 78.7932 66.8451V66.8516ZM77.2287 50.5957L82.7697 52.3584C83.6171 52.6522 83.3238 53.9579 82.4437 53.762L76.5768 52.6522C75.3969 52.3845 75.9249 50.1322 77.2287 50.5892V50.5957ZM89.81 52.6848C89.8659 51.7431 89.7329 50.7997 89.4189 49.9102C88.9951 48.7939 92.2546 48.6698 92.1242 49.9102C91.9938 51.8688 91.9286 58.1688 91.9286 64.4035L97.1437 64.3055C98.4474 64.2402 98.3496 66.5252 97.0459 66.3946C95.7421 66.2641 93.6887 66.1009 91.9286 66.0356C91.9286 71.6827 91.9938 77.0361 92.0264 78.7987C92.059 80.1044 89.5492 80.1044 89.6144 78.7987C89.7774 75.2995 90.1033 59.6311 89.81 52.6783V52.6848Z" fill="#311C0E"/>
<path d="M102.417 56.2689C106.198 56.3995 113.402 56.5301 117.319 56.2689C118.395 56.2037 118.558 58.2928 117.482 58.2275C113.571 58.0969 106.4 57.999 102.743 58.2275C101.694 58.3254 101.374 56.2363 102.417 56.2689ZM105.09 64.8865C105.09 62.0466 107.372 59.8596 110.501 59.8596C113.63 59.8596 115.846 62.0466 115.846 64.8865C115.846 67.7264 113.565 69.8808 110.501 69.8808C107.437 69.8808 105.09 67.7264 105.09 64.8865ZM107.926 53.07L113.995 54.2451C114.168 54.2884 114.351 54.2611 114.504 54.1693C114.656 54.0775 114.766 53.9286 114.81 53.7555C114.853 53.5823 114.826 53.3991 114.734 53.246C114.642 53.093 114.494 52.9827 114.321 52.9394L108.415 50.9809C107.144 50.6218 106.427 52.7762 107.926 53.07ZM107.111 64.8212C107.104 65.263 107.188 65.7014 107.358 66.1093C107.527 66.5171 107.779 66.8856 108.097 67.1918C108.415 67.498 108.792 67.7354 109.206 67.8892C109.62 68.0429 110.06 68.1097 110.501 68.0855C111.139 68.0599 111.756 67.8469 112.275 67.473C112.793 67.0991 113.191 66.5809 113.418 65.9826C113.644 65.3843 113.691 64.7325 113.55 64.1081C113.41 63.4838 113.09 62.9144 112.63 62.4709C112.169 62.0273 111.588 61.7292 110.96 61.6134C110.331 61.4977 109.683 61.5695 109.095 61.82C108.507 62.0704 108.005 62.4884 107.653 63.022C107.3 63.5556 107.112 64.1813 107.111 64.8212ZM111.739 72.7207C111.846 73.0932 111.912 73.4764 111.935 73.8632C112 74.8751 112.039 75.7564 112.039 76.9316C112.039 79.086 113.076 79.9673 115.592 79.9673H126.837C128.01 79.9673 127.326 78.1067 126.446 78.1393C124.066 78.2373 119.21 78.3026 115.592 78.2699C114.484 78.2699 114.158 77.8456 114.158 76.9642C114.158 75.6585 114.158 74.0264 114.216 72.9166C114.275 71.8067 111.472 71.7414 111.739 72.7534V72.7207ZM123.61 69.8808C123.545 71.1865 125.957 71.1865 125.924 69.8808C125.794 66.029 125.664 53.984 125.989 49.871C126.087 48.5653 122.828 48.6306 123.349 49.871C123.598 50.7746 123.718 51.7085 123.708 52.6456C123.806 54.4083 123.838 58.456 123.806 62.3078C122.078 62.3078 120.025 62.3078 118.395 62.2425C117.091 62.1772 117.254 64.4622 118.558 64.3316C120.025 64.1684 122.013 64.1031 123.773 64.0378C123.74 66.4207 123.675 68.549 123.61 69.9135V69.8808Z" fill="#311C0E"/>
</g>
<defs>
<clipPath id="clip0_37_317">
<rect width="169" height="80" fill="white"/>
</clipPath>
</defs>
</svg>
