<svg width="260" height="123" viewBox="0 0 260 123" fill="none" xmlns="http://www.w3.org/2000/svg">
<g clip-path="url(#clip0_37_329)">
<path d="M258.743 80.569C259.142 80.569 259.526 80.7278 259.809 81.0105C260.091 81.2931 260.25 81.6765 260.25 82.0763C260.25 108.836 227.873 108.836 206.449 108.836C206.05 108.836 205.666 108.677 205.383 108.394C205.101 108.112 204.942 107.728 204.942 107.329C204.942 106.929 205.101 106.545 205.383 106.263C205.666 105.98 206.05 105.821 206.449 105.821C232.576 105.821 256.13 104.083 257.195 83.5534C244.399 83.1318 232.291 77.6578 223.522 68.3297C217.161 61.3961 213.825 53.317 214.016 45.4087H175.168C171.288 50.6606 166.112 54.8155 160.145 57.4671C155.91 59.1655 151.382 60.0123 146.82 59.9592C141.17 59.9132 135.568 58.9144 130.25 57.0049C124.931 58.9118 119.33 59.9105 113.68 59.9592C109.114 60.0123 104.583 59.1655 100.345 57.4671C93.7531 54.7339 88.779 49.8804 85.272 45.4087H49.4685C47.0669 63.3858 28.1351 82.7797 3.29476 83.5534C4.36997 104.083 27.894 105.821 54.0407 105.821C54.4404 105.821 54.8238 105.98 55.1065 106.263C55.3892 106.545 55.548 106.929 55.548 107.329C55.548 107.728 55.3892 108.112 55.1065 108.394C54.8238 108.677 54.4404 108.836 54.0407 108.836C32.6169 108.836 0.25 108.836 0.25 82.0763C0.25 81.6765 0.408805 81.2931 0.691479 81.0105C0.974154 80.7278 1.35754 80.569 1.7573 80.569C26.3163 80.569 45.1074 61.1851 46.6147 43.7909C46.6472 43.415 46.8185 43.0646 47.0954 42.8082C47.3722 42.5518 47.7346 42.4078 48.1119 42.4042H83.1618C81.6747 40.2018 80.3804 37.8753 79.2931 35.4505C79.2162 35.2658 79.1767 35.0677 79.1767 34.8677C79.1767 34.6676 79.2162 34.4696 79.2931 34.2849C79.449 33.9127 79.7449 33.6168 80.1171 33.4609C83.31 32.2715 86.6166 31.4129 89.9849 30.8985C90.334 30.8447 90.6908 30.916 90.9924 31.0999C91.294 31.2838 91.5208 31.5684 91.6329 31.9033C91.6657 31.9911 91.6893 32.082 91.7032 32.1746C91.7608 32.5689 91.66 32.97 91.4227 33.2901C91.1854 33.6102 90.831 33.8233 90.4371 33.8829C87.8331 34.2903 85.2658 34.9053 82.7599 35.7218C83.9527 38.0535 85.3269 40.2878 86.8698 42.4042C87.5933 43.409 88.3871 44.4139 89.2714 45.4188C92.5647 49.4193 96.7496 52.5924 101.491 54.6836C108.836 57.6982 116.855 57.1255 122.452 56.0101C116.423 54.8444 108.093 52.1413 101.822 45.871L101.39 45.4188C100.48 44.4688 99.6306 43.4619 98.8478 42.4042C96.4059 39.0424 94.5195 35.3104 93.2607 31.3507C91.7858 26.8683 90.9535 22.1995 90.7888 17.4835C90.7887 17.0808 90.9476 16.6944 91.2309 16.4083C91.3706 16.2652 91.538 16.1522 91.7229 16.0762C91.9078 16.0001 92.1062 15.9627 92.3061 15.9662C96.7397 16.1171 101.133 16.8606 105.369 18.1769C105.774 13.7569 106.767 9.41085 108.324 5.25429C108.397 5.06948 108.507 4.90134 108.647 4.7598C108.787 4.61827 108.954 4.50622 109.138 4.4303C109.512 4.27943 109.929 4.27943 110.303 4.4303C114.333 6.27384 118.104 8.63875 121.518 11.4644C123.584 7.54862 126.159 3.92315 129.175 0.682149C129.463 0.406377 129.846 0.252441 130.245 0.252441C130.644 0.252441 131.027 0.406377 131.315 0.682149C134.347 3.91865 136.929 7.54869 138.992 11.4744C142.401 8.64709 146.169 6.28198 150.197 4.44035C150.567 4.29007 150.982 4.29007 151.352 4.44035C151.537 4.51613 151.706 4.62802 151.847 4.76949C151.989 4.91096 152.1 5.07918 152.176 5.26434C153.728 9.4182 154.718 13.7608 155.121 18.1769C159.357 16.8593 163.75 16.1125 168.184 15.9561C168.383 15.9548 168.581 15.9931 168.766 16.0689C168.951 16.1447 169.119 16.2564 169.26 16.3976C169.401 16.5387 169.513 16.7065 169.588 16.8912C169.664 17.0759 169.703 17.2738 169.701 17.4735C169.541 22.2187 168.699 26.9161 167.199 31.421C165.944 35.3578 164.068 39.0689 161.642 42.4142C160.862 43.4743 160.013 44.4814 159.1 45.4288L158.678 45.881C152.407 52.1514 144.077 54.8545 138.058 56.0201C143.665 57.1255 151.674 57.7284 158.999 54.6937C163.743 52.5984 167.932 49.4221 171.229 45.4188C172.103 44.4139 172.907 43.409 173.62 42.4042C175.166 40.2875 176.543 38.0532 177.74 35.7218C175.117 34.8683 172.429 34.2331 169.701 33.8226C169.308 33.7724 168.95 33.5691 168.706 33.2568C168.461 32.9446 168.349 32.5485 168.395 32.1545C168.409 32.0619 168.432 31.971 168.465 31.8832C168.577 31.5502 168.802 31.2671 169.102 31.0834C169.401 30.8997 169.756 30.8271 170.103 30.8784C173.615 31.3776 177.061 32.257 180.383 33.5011C180.57 33.578 180.739 33.6912 180.882 33.8342C181.025 33.9772 181.138 34.147 181.214 34.3339C181.291 34.5208 181.33 34.7211 181.329 34.9231C181.327 35.1251 181.286 35.3249 181.207 35.5108C180.114 37.9347 178.816 40.261 177.328 42.4645H215.614C215.822 42.4645 216.028 42.5083 216.219 42.5932C216.409 42.678 216.58 42.8019 216.719 42.9569C216.862 43.1093 216.97 43.2902 217.038 43.4876C217.105 43.6851 217.13 43.8946 217.111 44.1024C216.458 51.6791 219.523 59.5773 225.743 66.3702C229.988 70.857 235.105 74.4303 240.779 76.8717C246.453 79.3131 252.566 80.5712 258.743 80.569ZM157.763 42.4042C164.797 34.3652 166.275 23.171 166.596 19.041C162.393 19.3711 158.249 20.239 154.266 21.6236C149.633 23.1735 145.406 25.7419 141.896 29.1399C138.303 32.9045 135.64 37.4572 134.119 42.4343C133.777 43.4392 133.496 44.4441 133.245 45.4489C132.545 48.1989 132.075 51.002 131.838 53.8295C135.857 53.518 146.68 52.0609 154.668 45.4489C155.301 44.9264 155.934 44.3737 156.537 43.7708C156.959 43.3086 157.371 42.8664 157.763 42.4042ZM152.176 19.1918C151.861 15.3522 151.103 11.5621 149.915 7.89708C146.497 9.65296 143.291 11.7938 140.359 14.278C141.759 17.3717 142.736 20.6402 143.263 23.995C146.006 22.0021 149.004 20.3866 152.176 19.1918ZM139.766 26.9795C139.997 26.7484 140.248 26.5273 140.49 26.2962C139.605 15.8757 132.903 7.08314 130.25 4.0183C127.509 7.22329 125.189 10.7657 123.347 14.5593C121.537 18.246 120.407 22.2286 120.01 26.3163C120.252 26.5474 120.493 26.7685 120.724 27.0096C124.903 31.3383 127.959 36.6234 129.627 42.4042C129.878 43.2282 130.099 44.0321 130.3 44.8159C130.491 44.0321 130.722 43.2282 130.974 42.4042C132.604 36.6231 135.623 31.328 139.766 26.9795ZM128.622 53.7994C128.395 50.9713 127.927 48.1677 127.225 45.4188C126.974 44.4139 126.683 43.409 126.341 42.4042C124.819 37.4387 122.159 32.8969 118.573 29.1399C110.534 21.101 98.2349 19.4028 93.8838 19.0913C94.1953 23.2213 95.7126 34.4255 102.717 42.4544C103.108 42.9167 103.51 43.3588 103.943 43.7909C104.534 44.3846 105.158 44.9448 105.812 45.469C113.82 52.0509 124.603 53.4979 128.622 53.7994ZM117.247 23.985C117.769 20.6356 118.746 17.3732 120.151 14.288C117.202 11.7952 113.975 9.65076 110.534 7.89708C109.357 11.5538 108.602 15.3332 108.284 19.1616C111.473 20.3622 114.488 21.9844 117.247 23.985Z" fill="#A0774A"/>
<path d="M166.659 19.105C166.337 23.1847 164.86 34.389 157.826 42.4179C157.434 42.8801 157.022 43.3222 156.6 43.7543C155.997 44.3573 155.364 44.9099 154.731 45.4325C146.742 52.0445 135.94 53.4714 131.9 53.813C132.137 50.9855 132.608 48.1824 133.307 45.4325C133.558 44.4276 133.84 43.4227 134.181 42.4179C135.707 37.4515 138.37 32.9096 141.959 29.1536C145.472 25.7664 149.699 23.2085 154.329 21.6674C158.313 20.2897 162.456 19.4285 166.659 19.105Z" fill="#CA94A0"/>
<path d="M149.963 7.86963C151.15 11.5346 151.908 15.3248 152.224 19.1643C149.051 20.3592 146.053 21.9747 143.31 23.9676C142.784 20.6127 141.807 17.3443 140.406 14.2505C143.338 11.7664 146.544 9.62551 149.963 7.86963Z" fill="#A65D75"/>
<path d="M140.446 26.2754C140.205 26.5066 139.954 26.7276 139.723 26.9587C135.561 31.3019 132.525 36.5975 130.88 42.3834C130.628 43.2074 130.397 44.0113 130.206 44.7951C130.005 44.0113 129.784 43.2074 129.533 42.3834C127.884 36.5968 124.845 31.3014 120.68 26.9587C120.449 26.7176 120.208 26.4965 119.967 26.2654C120.363 22.1777 121.493 18.1951 123.303 14.5085C125.148 10.7254 127.467 7.19319 130.206 3.99756C132.859 7.0624 139.562 15.855 140.446 26.2754Z" fill="#CA94A0"/>
<path d="M127.196 45.4192C127.888 48.1691 128.345 50.9727 128.563 53.7998C124.543 53.4984 113.731 52.0513 105.742 45.4192C105.089 44.895 104.465 44.3348 103.873 43.7411C103.441 43.309 103.039 42.8669 102.647 42.4046C95.6132 34.3657 94.126 23.1715 93.8145 19.0415C98.1655 19.3731 110.425 21.0512 118.504 29.0902C122.098 32.8548 124.761 37.4074 126.282 42.3845C126.654 43.4396 126.945 44.4445 127.196 45.4192Z" fill="#CA94A0"/>
<path d="M120.114 14.2606C118.71 17.3457 117.733 20.6082 117.21 23.9575C114.464 21.9601 111.463 20.338 108.287 19.1342C108.592 15.3073 109.334 11.528 110.498 7.86963C113.938 9.62331 117.165 11.7678 120.114 14.2606Z" fill="#A65D75"/>
<path d="M59.0293 92.5463C59.0293 86.9693 63.3 82.4976 69.6809 82.4976C75.6096 82.4976 80.0813 86.7181 80.0813 92.5463C80.0813 98.3745 75.6096 102.294 69.6809 102.294C63.2799 102.294 59.0293 98.274 59.0293 92.5463ZM62.3454 92.5463C62.3245 93.4998 62.4978 94.4476 62.8547 95.332C63.2116 96.2164 63.7446 97.0191 64.4213 97.6911C65.098 98.3631 65.9043 98.8905 66.7912 99.2412C67.6781 99.5919 68.6271 99.7586 69.5804 99.7311C70.5396 99.7693 71.4962 99.6061 72.3885 99.2521C73.2808 98.8981 74.089 98.3611 74.7612 97.6757C75.4333 96.9903 75.9544 96.1718 76.2909 95.2727C76.6274 94.3737 76.7719 93.4141 76.715 92.4559C76.715 88.0847 73.8511 85.0701 69.5804 85.0701C68.6096 85.0411 67.6432 85.2135 66.7423 85.5764C65.8413 85.9393 65.0253 86.4849 64.3456 87.1787C63.6659 87.8726 63.1373 88.6997 62.7931 89.6079C62.4488 90.5161 62.2964 91.4858 62.3454 92.4559V92.5463ZM72.7458 110.533C72.9102 111.107 73.0112 111.696 73.0472 112.292C73.1477 113.849 73.198 116.713 73.198 118.522C73.198 121.838 74.8058 123.195 78.6745 123.195H96.5109C98.3197 123.195 97.2646 120.331 95.908 120.381C92.2402 120.532 84.2515 120.632 78.6745 120.582C76.9662 120.582 76.4638 119.929 76.4638 118.572C76.4638 116.563 76.4638 112.543 76.5643 110.835C76.6648 109.127 72.3237 108.926 72.7458 110.483V110.533ZM92.2402 108.172C92.2402 110.182 95.7573 110.182 95.707 108.172C95.5563 102.243 95.3553 83.0503 95.8578 76.8704C96.0085 74.9611 90.9842 75.0516 91.8383 76.8704C92.2402 77.7245 92.2905 78.8801 92.391 81.1411C92.391 82.5479 92.4915 84.9596 92.4915 87.7732C89.7281 87.7229 86.4622 87.6727 83.8496 87.522C81.8398 87.4215 82.0408 90.8883 84.0003 90.6371C86.8204 90.3264 89.6544 90.1587 92.4915 90.1346C92.4915 92.2448 92.4915 94.4555 92.4915 96.6663C89.5561 97.0112 86.6041 97.1957 83.6486 97.2189C82.0911 97.2189 82.2418 100.434 83.9501 100.334C86.8207 100.093 89.6631 99.5889 92.4412 98.8267C92.3407 102.505 92.2905 106.011 92.2402 108.122V108.172Z" fill="#311C0E"/>
<path d="M119.837 110.939V105.522C115.817 104.869 113.154 102.056 113.154 98.1366C113.154 93.7152 116.671 90.6503 121.495 90.6503C126.318 90.6503 129.684 93.665 129.684 98.1366C129.709 99.9676 129.047 101.741 127.828 103.108C126.61 104.475 124.924 105.337 123.102 105.522V110.647C126.89 110.319 130.641 109.647 134.307 108.637C136.065 108.135 136.618 109.944 135.111 110.496C128.328 112.908 117.174 114.064 106.512 114.064C104.603 114.064 103.749 110.597 105.758 110.798C110.44 111.219 115.147 111.266 119.837 110.939ZM131.995 85.4251C133.603 85.3246 134.005 88.4396 132.247 88.4396C126.268 88.2387 116.762 88.0377 111.034 88.4396C109.476 88.5401 108.934 85.4251 110.582 85.4251C116.319 85.616 125.966 85.7667 131.995 85.4251ZM121.495 102.91C122.15 102.94 122.804 102.836 123.419 102.606C124.033 102.376 124.594 102.024 125.068 101.57C125.543 101.117 125.92 100.573 126.178 99.9695C126.436 99.3664 126.569 98.7172 126.569 98.0612C126.569 97.4053 126.436 96.7561 126.178 96.153C125.92 95.5499 125.543 95.0053 125.068 94.5521C124.594 94.0989 124.033 93.7466 123.419 93.5164C122.804 93.2862 122.15 93.1829 121.495 93.2128C118.43 93.2128 116.259 95.2225 116.259 98.0864C116.259 100.95 118.43 102.9 121.495 102.9V102.91ZM119.083 77.8886L127.624 80.6017C128.931 81.0539 128.478 83.0636 127.122 82.7622L118.078 81.0539C116.259 80.6419 117.073 77.1751 119.083 77.8785V77.8886ZM138.477 81.1041C138.563 79.6546 138.358 78.2025 137.874 76.8334C137.221 75.1151 142.245 74.9242 142.044 76.8334C141.843 79.848 141.743 89.545 141.743 99.1415L149.782 98.9907C151.791 98.8903 151.641 102.407 149.631 102.206C147.621 102.005 144.456 101.754 141.743 101.654C141.743 110.346 141.843 118.586 141.893 121.299C141.944 123.308 138.075 123.308 138.175 121.299C138.427 115.913 138.929 91.7959 138.477 81.0941V81.1041Z" fill="#311C0E"/>
<path d="M157.897 86.5993C163.725 86.8003 174.829 87.0012 180.868 86.5993C182.526 86.4988 182.777 89.7144 181.119 89.6139C175.09 89.4129 164.037 89.2622 158.399 89.6139C156.781 89.7646 156.289 86.549 157.897 86.5993ZM162.017 99.8635C162.017 95.4923 165.534 92.126 170.357 92.126C175.181 92.126 178.597 95.4923 178.597 99.8635C178.597 104.235 175.08 107.551 170.357 107.551C165.634 107.551 162.017 104.235 162.017 99.8635ZM166.388 81.6754L175.743 83.4842C176.01 83.5508 176.292 83.5089 176.527 83.3675C176.763 83.2262 176.933 82.9971 176.999 82.7305C177.066 82.464 177.024 82.182 176.883 81.9464C176.741 81.7109 176.512 81.5411 176.246 81.4745L167.142 78.4599C165.182 77.9072 164.077 81.2233 166.388 81.6754ZM165.132 99.763C165.121 100.443 165.251 101.118 165.512 101.746C165.774 102.373 166.161 102.941 166.652 103.412C167.142 103.883 167.724 104.249 168.361 104.485C168.999 104.722 169.678 104.825 170.357 104.787C171.341 104.748 172.292 104.42 173.092 103.845C173.891 103.269 174.504 102.471 174.853 101.551C175.203 100.63 175.274 99.6264 175.058 98.6654C174.842 97.7044 174.349 96.828 173.639 96.1453C172.929 95.4626 172.034 95.0037 171.065 94.8256C170.096 94.6474 169.096 94.758 168.19 95.1435C167.284 95.5289 166.51 96.1723 165.967 96.9937C165.423 97.815 165.133 98.778 165.132 99.763ZM172.267 111.922C172.431 112.495 172.532 113.085 172.568 113.68C172.668 115.238 172.729 116.595 172.729 118.403C172.729 121.719 174.327 123.076 178.205 123.076H195.539C197.348 123.076 196.293 120.212 194.936 120.262C191.269 120.413 183.782 120.514 178.205 120.463C176.497 120.463 175.995 119.81 175.995 118.454C175.995 116.444 175.995 113.932 176.085 112.223C176.175 110.515 171.855 110.415 172.267 111.972V111.922ZM190.565 107.551C190.465 109.56 194.183 109.56 194.132 107.551C193.932 101.622 193.731 83.0823 194.233 76.7516C194.384 74.7419 189.359 74.8424 190.163 76.7516C190.546 78.1423 190.732 79.5799 190.716 81.0223C190.867 83.7354 190.917 89.9656 190.867 95.8943C188.204 95.8943 185.038 95.8943 182.526 95.7938C180.516 95.6933 180.768 99.2103 182.777 99.0094C185.038 98.7582 188.103 98.6577 190.816 98.5572C190.766 102.225 190.666 105.501 190.565 107.601V107.551Z" fill="#311C0E"/>
</g>
<defs>
<clipPath id="clip0_37_329">
<rect width="259.25" height="122.54" fill="white"/>
</clipPath>
</defs>
</svg>
